<svg id="圖層_1" data-name="圖層 1" xmlns="http://www.w3.org/2000/svg" viewBox="0 0 97 71"><defs><style>.cls-1{fill:#ffd19d;}.cls-2{font-size:21.53px;}.cls-2,.cls-3,.cls-4{fill:#604c3f;}.cls-2,.cls-3{font-family:jf-openhuninn-1.1;}.cls-3{font-size:11.25px;}</style></defs><title>mango_name</title><path class="cls-1" d="M6.36,1.28c-1.22,14.2-2.78,52.39,1,55.57,5.27,4.5,31.46,13.25,40,14.11S88.35,59.27,90,58C91.17,57,92.3,16.8,91.32,1.28Z"/><text class="cls-2" transform="translate(14.89 40.93)">萌果君</text><text class="cls-3" transform="translate(17.49 55.47)">Mangoking</text><path class="cls-4" d="M97,3.2a3.21,3.21,0,0,1-3.21,3.2H3.21A3.21,3.21,0,0,1,0,3.2H0A3.21,3.21,0,0,1,3.21,0H93.79A3.21,3.21,0,0,1,97,3.2Z"/></svg>