<svg id="圖層_1" data-name="圖層 1" xmlns="http://www.w3.org/2000/svg" viewBox="0 0 97 74"><defs><style>.cls-1{fill:#ffd19d;}.cls-2{font-size:21.49px;}.cls-2,.cls-3,.cls-4{fill:#604c3f;}.cls-2,.cls-3{font-family:jf-openhuninn-1.1;}.cls-3{font-size:11.22px;}</style></defs><title>hanji_name</title><path class="cls-1" d="M6.62,3.15c-1.23,14.17-2.79,53.55,1,56.73C12.85,64.37,39,73.1,47.54,74S88.6,62.29,90.24,61c1.18-.94,2.31-42.37,1.33-57.86Z" transform="translate(0 0)"/><text class="cls-2" transform="translate(15.14 44) scale(1.01 1)">夯吉喵</text><text class="cls-3" transform="translate(33.01 58.5) scale(1.01 1)">HanJi</text><path class="cls-4" d="M97,3.19a3.2,3.2,0,0,1-3.21,3.19H3.21A3.2,3.2,0,0,1,0,3.19H0A3.2,3.2,0,0,1,3.21,0H93.79A3.2,3.2,0,0,1,97,3.19Z" transform="translate(0 0)"/></svg>