<?xml version="1.0" encoding="utf-8"?>
<!-- Generator: Adobe Illustrator 23.0.3, SVG Export Plug-In . SVG Version: 6.00 Build 0)  -->
<svg version="1.1" id="圖層_1" xmlns="http://www.w3.org/2000/svg" xmlns:xlink="http://www.w3.org/1999/xlink" x="0px" y="0px"
	 viewBox="0 0 70 50" style="enable-background:new 0 0 70 50;" xml:space="preserve">
<style type="text/css">
	.st0{fill:#FBEBDF;stroke:#604C3F;stroke-width:3;stroke-linecap:round;stroke-linejoin:round;stroke-miterlimit:10;}
	.st1{fill:#604C3F;}
</style>
<g>
	<path class="st0" d="M67,16.1C62.9,3.5,39.4,2,25.4,3.4C16.3,4.3,5.6,10.8,2.8,19c-3.6,12.1,4.6,19.4,16.3,22.4
		c-0.9,1.7-1.7,3.6-2.3,5.5c4.1,0,7.3-1.6,9.9-4.1C51.7,45.6,72.9,34,67,16.1z"/>
	<path class="st1" d="M21.5,21.7c-0.8-0.5-1.9-0.5-2.6,0.2c-0.6,0.7-0.8,1.8-0.5,2.7c0.1,0.2,0.2,0.4,0.4,0.5c0.3,0.3,0.7,0.6,1,0.8
		c1,0.4,2.1-0.2,2.6-1.1c0.2-0.3,0.2-0.6,0.2-1c0.1-0.7-0.2-1.4-0.8-1.9C21.7,21.8,21.6,21.8,21.5,21.7"/>
	<path class="st1" d="M36.2,22c-0.1-0.1-0.3-0.2-0.4-0.2c-0.8-0.5-1.9-0.5-2.6,0.2c-0.6,0.7-0.8,1.8-0.5,2.7
		c0.1,0.2,0.2,0.4,0.4,0.5c0.3,0.3,0.7,0.6,1,0.8c1,0.4,2.1-0.2,2.6-1.1c0.2-0.3,0.2-0.6,0.2-1C37.1,23.2,36.8,22.5,36.2,22z"/>
	<path class="st1" d="M50.6,22c-0.1-0.1-0.3-0.2-0.4-0.2c-0.8-0.5-1.9-0.5-2.6,0.2c-0.6,0.7-0.8,1.8-0.5,2.7
		c0.1,0.2,0.2,0.4,0.4,0.5c0.3,0.3,0.7,0.6,1,0.8c1,0.4,2.1-0.2,2.6-1.1c0.2-0.3,0.2-0.6,0.2-1C51.5,23.2,51.1,22.5,50.6,22z"/>
</g>
</svg>
