<?xml version="1.0" encoding="utf-8"?>
<!-- Generator: Adobe Illustrator 23.0.3, SVG Export Plug-In . SVG Version: 6.00 Build 0)  -->
<svg version="1.1" id="圖層_1" xmlns="http://www.w3.org/2000/svg" xmlns:xlink="http://www.w3.org/1999/xlink" x="0px" y="0px"
	 viewBox="0 0 125 165" style="enable-background:new 0 0 125 165;" xml:space="preserve">
<style type="text/css">
	.st0{fill:#D0D1D1;}
	.st1{fill:#FFD19D;}
	.st2{fill:#604C3F;}
	.st3{fill:#FFFFFF;}
	.st4{fill:#FFD19D;stroke:#604C3F;stroke-width:3;stroke-linecap:round;stroke-linejoin:round;stroke-miterlimit:10;}
	.st5{fill:#FFFFFF;stroke:#604C3F;stroke-width:3;stroke-linecap:round;stroke-linejoin:round;stroke-miterlimit:10;}
	.st6{fill:#604C3F;stroke:#604C3F;stroke-width:3;stroke-linecap:round;stroke-linejoin:round;stroke-miterlimit:10;}
	.st7{fill:#EA95A7;}
	.st8{fill:#BEE0F3;stroke:#FFFFFF;stroke-width:2;stroke-linecap:round;stroke-linejoin:round;stroke-miterlimit:10;}
	.st9{fill:#CCE198;stroke:#FFFFFF;stroke-width:2;stroke-linecap:round;stroke-linejoin:round;stroke-miterlimit:10;}
	.st10{fill:#849097;stroke:#604C3F;stroke-width:3;stroke-linecap:round;stroke-linejoin:round;stroke-miterlimit:10;}
	.st11{fill:none;stroke:#604C3F;stroke-width:3;stroke-linecap:round;stroke-linejoin:round;stroke-miterlimit:10;}
</style>
<g>
	<path class="st0" d="M82.4,146.4c0,2-13.4,3.7-30,3.7c-16.6,0-30-1.7-30-3.7c0-2,13.4-3.7,30-3.7C69,142.8,82.4,144.4,82.4,146.4z"
		/>
	<path class="st0" d="M120.4,154.7c0,4.3-11.6,7.8-25.8,7.8c-14.3,0-25.8-3.5-25.8-7.8s11.6-7.8,25.8-7.8
		C108.8,146.9,120.4,150.4,120.4,154.7z"/>
	<g>
		<g>
			<g>
				<g>
					<g>
						<g>
							<path class="st1" d="M64.6,124.9c-0.2,0-0.5-0.1-0.7-0.2c-0.4-0.2-0.7-0.6-0.7-1l-2.3-11.2c-0.1-0.4,0-0.8,0.2-1.1
								c0.2-0.3,0.6-0.6,1-0.6c8.5-1.6,16.2-9.2,20.1-13.6c0.7-0.8,1.6-2,2.6-3.5c3.6-5,8.5-11.9,13.7-11.9c0.2,0,0.4,0,0.6,0
								c4.4,0.4,5.9,2.6,6.4,4.3c2.1,8.2-14.7,24.5-17.1,26.2c-6.5,5.1-13.2,8.7-23.1,12.5C64.9,124.8,64.8,124.9,64.6,124.9z"/>
							<path class="st2" d="M98.4,83.2c0.1,0,0.3,0,0.4,0c15.4,1.4-7.9,25.3-11.5,27.8c-7.1,5.6-14.2,9.1-22.7,12.3l-2.3-11.2
								c8-1.5,15.5-8,20.9-14.1C86.4,94.4,92.6,83.2,98.4,83.2 M98.4,80.2C98.4,80.2,98.4,80.2,98.4,80.2c-6,0-11,7-15,12.6
								c-1,1.4-1.9,2.6-2.5,3.4c-3.7,4.2-11.1,11.6-19.2,13.1c-0.8,0.2-1.5,0.6-1.9,1.3c-0.4,0.7-0.6,1.5-0.4,2.3l2.3,11.2
								c0.2,0.9,0.7,1.6,1.5,2c0.4,0.2,0.9,0.4,1.4,0.4c0.4,0,0.7-0.1,1.1-0.2c10-3.8,16.8-7.5,23.4-12.7c2-1.4,6.8-6.2,10.6-11
								c5.8-7.3,8.1-12.8,7.1-16.8c-0.5-1.8-2.1-4.9-7.7-5.4C98.9,80.2,98.7,80.2,98.4,80.2L98.4,80.2z"/>
						</g>
						<path class="st3" d="M98.6,90c-2.5-1.9-4.3-4.9-4.5-5c-1,0.8-3.5,3.5-4.4,4.5c0.4,0.8,0.9,1.5,1.4,2.2
							c0.7,1.1,1.8,1.9,2.6,2.9c1.3,1.6,3.3,3.2,5.4,3.8c0.9-1.3,3-4.7,3.7-6C102.4,92.2,99.7,90.8,98.6,90z"/>
						<path class="st3" d="M87.3,92.6c-1.3,1.8-4.5,5.8-5.4,7c0.5,1.4,1.3,3.4,2.2,4.6c1.6,2.3,3.4,3.2,5.6,4.8
							c1-1.1,4.1-4.2,5.2-5.5c-0.7-1.5-2-2.7-2.9-4.2C90.6,97,88.9,94.8,87.3,92.6z"/>
						<path class="st1" d="M81.7,89.6c0,12.2-13.9,22.1-31.1,22.1c-17.1,0-31.1-9.9-31.1-22.1c0-12.2,13.9-22.2,31.1-22.2
							C67.8,67.4,81.7,77.3,81.7,89.6z"/>
						<g>
							<path class="st4" d="M25.6,91.6c-2,5.1-3.2,10.4-3.2,15c0,11.1,4.5,16.9,14.1,19.7c0,4.8,0,15.7,7.3,15.4
								c2.8-0.1,3.3-9,3.5-13.2c1.6,0.2,1.6,0.1,3.3,0.1c2.7,0,3.9,0,6.3-0.4c0.1,4.5,0.8,13.7,4.9,13.6c6,0,5.7-10.1,5-15.3
								c8.2-3.2,11.9-10,11.9-20c0-4.7-1.2-10-3.3-15.1"/>
							<path class="st3" d="M33.6,84.4c0,0-2,16.8-2,22c0,7.1,5.6,14.7,19,14.9c13.4,0.2,20.4-6.4,20.4-15.4
								c0-8.9-2.3-22.3-6.1-23.9C61.2,80.2,36.4,72,33.6,84.4z"/>
							<path class="st4" d="M22.4,81.9c-0.5,0.4-12.6,18.4-5.7,25.6c3.9,2.7,5.9-0.8,6.1-2c0.2-1.3,1.2-11.4,3.9-14"/>
							<path class="st4" d="M78.8,81.9c0.5,0.4,12.6,18.4,5.7,25.6c-3.9,2.7-5.9-0.8-6.1-2c-0.2-1.3-1.2-11.4-3.9-14"/>
						</g>
						<path class="st4" d="M79.5,84.4C91,78.3,98.4,68.6,98.4,56.9c0-11.2-7.6-32.8-25.4-39.3c0-0.1,0-0.1,0-0.2
							c0-3.9,0-14.2-6.1-14.2c-5.3,0-6,6.2-6.1,10.8c-3-0.5-6.4-0.8-10.1-0.9h-0.1c-3.7,0.1-7.1,0.4-10.1,0.9
							c-0.1-4.6-0.8-10.8-6.1-10.8c-6.1,0-6.1,10.4-6.1,14.2c0,0.1,0,0.1,0,0.2C10.5,24.1,2.9,45.7,2.9,56.9
							c0,11.7,7.4,21.4,18.9,27.5"/>
					</g>
					<g>
						<g>
							<g>
								<path class="st5" d="M33.4,64.5c9.2,0,13.4-7.5,13.4-16.8c0-9.3-4.2-16.8-13.4-16.8c-9.2,0-15.5,7.5-15.5,16.8
									C17.9,57,24.2,64.5,33.4,64.5z"/>
							</g>
							<g>
								<path class="st5" d="M67.9,64.5c-9.2,0-13.4-7.5-13.4-16.8c0-9.3,4.2-16.8,13.4-16.8c9.2,0,15.5,7.5,15.5,16.8
									C83.4,57,77,64.5,67.9,64.5z"/>
								<path class="st2" d="M69,41.3c-4.9,0-6.7,3.8-6.7,7.3c0,3.4,3.2,7.3,6.6,7.3s6.3-3.9,6.3-7.3C75.1,45.2,72.4,41.3,69,41.3z"
									/>
								<path class="st2" d="M32.7,41.3c-4.9,0-6.7,3.8-6.7,7.3c0,3.4,3.2,7.3,6.6,7.3c3.4,0,6.3-3.9,6.3-7.3
									C38.8,45.2,36,41.3,32.7,41.3z"/>
							</g>
						</g>
					</g>
				</g>
				<g>
					<g>
						<path class="st6" d="M48.6,66.5c0,0,1.6-0.8,2-1.7c0.4,1,1.7,1.7,1.7,1.7"/>
						<path class="st6" d="M52.9,62.2c0,1.2-1,2.5-2.2,2.5s-2.2-1.3-2.2-2.5c0-0.9,1-1.7,2.2-1.7S52.9,61.4,52.9,62.2z"/>
					</g>
				</g>
			</g>
			<path class="st2" d="M55.1,115c-0.3,0.3-0.7,0.4-1.2,0.4l-0.7,0l0,0.7c0,0.6-0.2,1-0.4,1.3c-0.4,0.4-0.7,0.4-1.1,0
				c-0.2-0.2-0.3-0.7-0.3-1.3l0.1-0.6l-0.6,0c-0.6,0-1.1-0.1-1.3-0.4c-0.3-0.4-0.3-0.7,0-1.1c0.2-0.2,0.7-0.3,1.3-0.3h0.7l0-0.7
				c0-0.5,0.2-0.9,0.4-1.2c0.3-0.4,0.7-0.4,1-0.1c0.3,0.2,0.4,0.7,0.3,1.2l0,0.8l0.7,0c0.5,0,0.9,0.1,1.2,0.4
				C55.5,114.3,55.5,114.6,55.1,115z"/>
		</g>
		<g>
			<g>
				<path class="st1" d="M49.9,89.8c-12,0-23.2-1.8-29.2-4.8C8.5,79,1,67.9,1,56.2c0-12.3,8.1-33.3,25.4-40.3C26.5,11.1,26.9,1,34,1
					c4.6,0,7.1,3.5,7.5,10.5c2.7-0.4,5.6-0.6,8.6-0.6c0,0,0.1,0,0.1,0c3,0,5.9,0.3,8.7,0.6c0.4-7,3-10.5,7.5-10.5
					c7.1,0,7.5,10.1,7.6,14.9c17.3,7,25.4,28,25.4,40.3c0,12.8-7.6,23.9-19.8,28.9C72.1,88.1,61.5,89.8,49.9,89.8
					C49.9,89.8,49.9,89.8,49.9,89.8z"/>
				<path class="st2" d="M66.5,2.5c6.1,0,6.1,10.4,6.1,14.2c0,0.1,0,0.1,0,0.2C90.3,23.4,98,45,98,56.2c0,11.7-6.8,22.6-18.9,27.5
					c-8,3.2-18.9,4.7-29.3,4.7c-11.6,0-22.6-1.7-28.5-4.7C10.3,78.1,2.5,67.9,2.5,56.2c0-11.2,7.7-32.8,25.4-39.3c0-0.1,0-0.1,0-0.2
					c0-3.9,0-14.2,6.1-14.2c5.3,0,6,6.2,6.1,10.8c3-0.5,6.4-0.8,10.1-0.9h0.1c3.7,0.1,7.1,0.4,10.1,0.9C60.4,8.7,61.2,2.5,66.5,2.5
					 M66.5-0.5c-3.6,0-6.4,2-7.8,5.5c-0.5,1.4-0.9,2.9-1.1,4.8c-2.3-0.3-4.7-0.4-7.2-0.5l-0.1,0c-2.5,0-5,0.2-7.3,0.5
					C42.7,8,42.3,6.4,41.8,5c-1.4-3.6-4.2-5.5-7.8-5.5c-8,0-8.9,10.1-9.1,15.4C7.6,22.5-0.5,43.7-0.5,56.2C-0.5,68.5,7.4,80,20,86.3
					c6.2,3.1,17.6,5,29.8,5c11.9,0,22.7-1.7,30.4-4.9C93,81.2,101,69.6,101,56.2c0-12.5-8.1-33.7-25.4-41.3
					C75.4,9.6,74.5-0.5,66.5-0.5L66.5-0.5z"/>
			</g>
			<g>
				<path class="st3" d="M89.7,64.5c-3.6-5.1-8.8-8.3-14.6-6c-10.2,4.1-20.5,5.1-31,5.2c-11.1,0.3-21.2-0.5-30.3-4.7
					C6.8,55.9,5,67.4,7,71.1c3,5.4,8.4,9.6,14.4,12.6c11.1,5.5,40.9,6.9,57.8,0c4.8-2,8.8-4.9,11.8-8.4C91.8,72.7,91.4,67,89.7,64.5
					z"/>
			</g>
			<g>
				<g>
					<g>
						<path class="st4" d="M42.2,66.7c0,0,1.6-0.7,2-1.7c0.4,1,1.7,1.7,1.7,1.7"/>
						<path class="st6" d="M46.4,62.5c0,1.2-1,2.5-2.2,2.5C43,65,42,63.7,42,62.5c0-0.9,1-1.7,2.2-1.7
							C45.4,60.7,46.4,61.6,46.4,62.5z"/>
					</g>
				</g>
				<g>
					<g>
						<path class="st5" d="M26.8,63.7c9.2,0,13.4-7.5,13.4-16.8c0-9.3-4.2-16.8-13.4-16.8c-9.2,0-15.5,7.5-15.5,16.8
							C11.2,56.2,17.6,63.7,26.8,63.7z"/>
						<path class="st2" d="M25.8,43.9c2.7,0,3.7,2.1,3.7,3.9c0,1.8-1.7,3.9-3.6,3.9c-1.8,0-3.4-2.1-3.4-3.9
							C22.4,46,23.9,43.9,25.8,43.9z"/>
					</g>
					<g>
						<path class="st5" d="M61.2,63.7c-9.2,0-13.4-7.5-13.4-16.8c0-9.3,4.2-16.8,13.4-16.8c9.2,0,15.5,7.5,15.5,16.8
							C76.7,56.2,70.4,63.7,61.2,63.7z"/>
						<path class="st2" d="M62.2,43.9c-2.7,0-3.7,2.1-3.7,3.9c0,1.8,1.7,3.9,3.6,3.9c1.8,0,3.4-2.1,3.4-3.9
							C65.5,46,64,43.9,62.2,43.9z"/>
					</g>
				</g>
			</g>
		</g>
	</g>
	<g>
		<g>
			<g>
				<path class="st7" d="M88.8,158.8c-4.8,0-8.6-0.8-11.2-2.4c0,0-0.1,0-0.1-0.1c-3.5-2.6-5.5-7.5-5.6-13.8
					c-0.1-5.2,1.2-10.8,3.2-14.7c0.9-2.1,2.7-3.5,4.5-4.9c1.3-1,2.6-2,3.6-3.3c0.1-0.2,0.3-0.3,0.5-0.4l27-15.9
					c0.2-0.1,0.5-0.2,0.8-0.2c0.3,0,0.5,0.1,0.8,0.2c8.1,4.9,12.6,15.4,11.6,27.4c-0.9,11.7-6.7,21-15.1,24.5
					C104.4,156.9,96.3,158.8,88.8,158.8C88.8,158.8,88.8,158.8,88.8,158.8z"/>
				<path class="st2" d="M111.5,104.6c16.3,9.8,14,42.2-3.3,49.2c-4.4,1.8-12.4,3.6-19.4,3.6c-4.1,0-7.8-0.6-10.4-2.2
					c-7-5.2-5.6-19.7-1.9-26.7c1.4-3.3,5.6-4.7,7.9-8L111.5,104.6 M111.5,101.6c-0.5,0-1.1,0.1-1.5,0.4l-27,15.9
					c-0.4,0.2-0.7,0.5-0.9,0.8c-0.8,1.1-2,2-3.2,3c-1.8,1.4-3.8,3-4.9,5.4c-4.4,8.4-5.5,24.3,2.8,30.4c0.1,0.1,0.2,0.1,0.2,0.2
					c2.8,1.7,6.9,2.6,12,2.6c7.6,0,16-2,20.5-3.8c8.9-3.7,15.1-13.5,16-25.7c1-12.6-3.8-23.6-12.4-28.8
					C112.5,101.7,112,101.6,111.5,101.6L111.5,101.6z"/>
			</g>
			<path class="st8" d="M111.5,104.6l-27,15.9c-2.3,3.3-6.5,4.7-7.9,8c-2.6,4.9-3.5,12.9-1.7,19.4c2.7,0.8,4.8,2.2,7.6,2.3
				c6.5,0.5,15-0.8,20.6-4.3c7.1-4.3,14.2-7.6,18.5-15.1c0.3-0.5,0.6-1,0.9-1.5C122.9,119.4,119.4,109.3,111.5,104.6z"/>
			<path class="st9" d="M87,142.8c8.6-0.5,18.5-7.3,24.4-13.1c3.2-3.3,6.8-8.6,8.9-13.9c-1.8-4.6-4.7-8.6-8.9-11.1l-27,15.9
				c-2.3,3.3-6.5,4.7-7.9,8c-1.3,2.5-2.3,5.9-2.8,9.4C77.7,141,82.9,142.9,87,142.8z"/>
			<path class="st10" d="M103.6,104.6c-2.2,1.3-3.8,3-5.3,5c-5.9,3.9-21.6,13.7-20.3,18.5c4.2,10.3,21.9,0,26.1-4.2
				c3.3-2.8,9.3-8.4,9.3-13.1C113.3,102.4,109.1,101.9,103.6,104.6z"/>
		</g>
		<path class="st11" d="M100.8,155.9c0,0-3.1-31.5-10.8-38.8c-5.2-4.7-10.3-12.9-5.9-16c4.5-3.1,31.7,3.5,32.8,45"/>
		<path class="st11" d="M84.5,119.2c-0.2-0.6-5.8-18.3,0.1-18.7c5.8-0.4,13.5,5.1,12.9,9.6"/>
	</g>
</g>
</svg>
