<?xml version="1.0" encoding="utf-8"?>
<!-- Generator: Adobe Illustrator 23.0.3, SVG Export Plug-In . SVG Version: 6.00 Build 0)  -->
<svg version="1.1" id="圖層_1" xmlns="http://www.w3.org/2000/svg" xmlns:xlink="http://www.w3.org/1999/xlink" x="0px" y="0px"
	 viewBox="0 0 370 430" style="enable-background:new 0 0 370 430;" xml:space="preserve">
<style type="text/css">
	.st0{fill:#D0D1D1;}
	.st1{fill:#FBEBDF;stroke:#604C3F;stroke-width:3;stroke-linecap:round;stroke-linejoin:round;stroke-miterlimit:10;}
	.st2{fill:#604C3F;}
	.st3{fill:#FFFF9F;stroke:#604C3F;stroke-width:3;stroke-linecap:round;stroke-linejoin:round;stroke-miterlimit:10;}
	.st4{fill:#FBEBDF;}
	.st5{fill:#FFD19D;}
	.st6{clip-path:url(#SVGID_2_);}
	.st7{fill:#F6C8D6;}
	.st8{fill:#F6C8D6;stroke:#604C3F;stroke-width:3;stroke-linecap:round;stroke-linejoin:round;stroke-miterlimit:10;}
	.st9{fill:#D9A981;stroke:#604C3F;stroke-width:3;stroke-linecap:round;stroke-linejoin:round;stroke-miterlimit:10;}
	.st10{fill:#FFFFFF;stroke:#604C3F;stroke-width:3;stroke-linecap:round;stroke-linejoin:round;stroke-miterlimit:10;}
	.st11{fill:#FFD19D;stroke:#604C3F;stroke-width:3;stroke-linecap:round;stroke-linejoin:round;stroke-miterlimit:10;}
	.st12{fill:#315A87;stroke:#604C3F;stroke-width:3;stroke-linecap:round;stroke-linejoin:round;stroke-miterlimit:10;}
</style>
<g>
	<ellipse class="st0" cx="185.3" cy="376.6" rx="147.4" ry="17.4"/>
	<g>
		<g>
			<g>
				<path class="st1" d="M234.6,131.3c0,0,4.6,13.8-9.9,20c1.2,6.6,2.6,16.1,2.5,22.1c-0.2,9.8-3.7,19.2-12.9,24.8l-1.4,18.3
					c0,0,3.9,6-7.4,6c-7,0-7.7-6-7.7-6l-0.6-13.2c-1.8,0.2-3.6,0.2-5.6,0.2h-0.8c-1.6,0-3.2-0.1-4.7-0.2l-0.6,14.1c0,0-0.7,5-7.7,5
					c-12.2,0-7.4-5.8-7.4-5.8l-1.3-17.9c-9.9-5.5-13.7-15.2-13.9-25.3c-0.1-5.9,0.9-15.6,1.8-22.4c-20.2-13.4-10.4-22.9-10.4-22.9
					s5.4,1.1,14.8,3.9c3.9-8.6,12.2-19.2,29-19.2c17.8,0,25.9,10.5,29.6,19.4C232,127.2,234.3,129.8,234.6,131.3z"/>
				<path class="st2" d="M194.1,181.1c-0.3,0.3-0.7,0.4-1.2,0.4l-0.7,0l0,0.7c0,0.6-0.2,1-0.4,1.3c-0.4,0.4-0.7,0.4-1.1,0
					c-0.2-0.2-0.4-0.7-0.3-1.4l0.1-0.6l-0.6,0c-0.6,0-1.1-0.1-1.3-0.4c-0.4-0.4-0.4-0.7,0-1.1c0.2-0.2,0.7-0.4,1.4-0.3h0.7l0-0.7
					c0-0.5,0.2-0.9,0.4-1.2c0.4-0.4,0.7-0.4,1-0.1c0.3,0.3,0.4,0.7,0.3,1.2l0,0.8l0.7,0c0.6,0,1,0.1,1.2,0.4
					C194.4,180.4,194.4,180.8,194.1,181.1z"/>
				<g>
					<g>
						<path class="st2" d="M212.7,151.6c0,0.9-0.7,1.6-1.6,1.6c-0.9,0-1.6-0.7-1.6-1.6c0-0.9,0.7-1.6,1.6-1.6
							C211.9,149.9,212.7,150.7,212.7,151.6z"/>
					</g>
					<g>
						<path class="st2" d="M173.1,151.6c0,0.9-0.7,1.6-1.6,1.6c-0.9,0-1.6-0.7-1.6-1.6c0-0.9,0.7-1.6,1.6-1.6
							C172.4,149.9,173.1,150.7,173.1,151.6z"/>
					</g>
				</g>
				<path class="st3" d="M264,75.1c0,42.6-32.9,61.4-73.1,61.4c-40.2,0-72.4-17.6-72.4-61.4c0-40.1,32.6-72.6,72.7-72.6
					C231.4,2.5,264,35,264,75.1z"/>
				<g>
					<path class="st4" d="M190.9,136.3c-36.6,0-54.4-13.9-54.4-42.6c0-1.5,0.1-3.1,0.2-4.9c0-0.4,0.2-0.7,0.5-1
						c13.5-12,32.7-18.6,54-18.6c21.3,0,40.5,6.6,54,18.6c0.3,0.3,0.5,0.6,0.5,1c0.2,1.7,0.2,3.3,0.2,4.9
						C246,122,227.4,136.3,190.9,136.3z"/>
					<path class="st2" d="M191.2,70.6c20.9,0,39.7,6.4,53,18.3c0.1,1.6,0.2,3.1,0.2,4.8c0,29.3-20,41.1-53.6,41.1
						c-34.3,0-52.9-11.9-52.9-41.1c0-1.6,0.1-3.2,0.2-4.8C151.5,77.1,170.3,70.6,191.2,70.6 M191.2,67.6c-21.7,0-41.2,6.8-55,19
						c-0.6,0.5-0.9,1.2-1,2c-0.2,1.8-0.2,3.5-0.2,5c0,29.7,18.3,44.1,55.9,44.1c37.6,0,56.6-14.8,56.6-44.1c0-1.6-0.1-3.3-0.2-5.1
						c-0.1-0.8-0.4-1.5-1-2C232.5,74.4,212.9,67.6,191.2,67.6L191.2,67.6z"/>
				</g>
				<g>
					<path class="st5" d="M135.5,98.1c-2.3,0-3.9-0.7-4.6-2c-0.8-1.5-0.3-3.5,1.6-6.1c7.5-10.4,24-14.4,24.7-14.5c0.1,0,0.2,0,0.3,0
						c0.6,0,1.2,0.4,1.4,0.9c0.2,0.4,3.7,9.5-9.1,17.6C147,95.7,140,98.1,135.5,98.1z"/>
					<path class="st2" d="M157.6,77c0,0,3.3,8.3-8.5,15.7c-2.6,1.6-9.4,3.9-13.5,3.9c-3.2,0-4.9-1.4-1.8-5.7
						C141,80.9,157.6,77,157.6,77 M157.6,74c-0.2,0-0.5,0-0.7,0.1c-0.7,0.2-17.8,4.3-25.6,15.1c-0.8,1.1-3.3,4.5-1.7,7.6
						c0.7,1.3,2.2,2.8,5.9,2.8c4.8,0,12.1-2.6,15.1-4.3c0,0,0,0,0.1,0c13.8-8.7,9.9-19,9.7-19.4C159.9,74.7,158.8,74,157.6,74
						L157.6,74z"/>
				</g>
				<g>
					<defs>
						<path id="SVGID_1_" d="M190.9,134.8c33.6,0,53.6-11.9,53.6-41.1c0-1.6-0.1-3.2-0.2-4.8c-13.3-11.8-32.1-18.3-53-18.3
							c-20.9,0-39.7,6.4-53,18.3c-0.1,1.6-0.2,3.1-0.2,4.8C138,122.9,156.6,134.8,190.9,134.8z"/>
					</defs>
					<clipPath id="SVGID_2_">
						<use xlink:href="#SVGID_1_"  style="overflow:visible;"/>
					</clipPath>
					<g class="st6">
						<g>
							<path class="st7" d="M160.5,124.9c0,8.5-6.9,15.4-15.5,15.4c-8.5,0-15.5-6.9-15.5-15.4c0-8.5,6.9-15.4,15.5-15.4
								C153.6,109.4,160.5,116.3,160.5,124.9z"/>
							<path class="st7" d="M252.9,124.9c0,8.5-6.9,15.4-15.5,15.4c-8.5,0-15.5-6.9-15.5-15.4c0-8.5,6.9-15.4,15.5-15.4
								C246,109.4,252.9,116.3,252.9,124.9z"/>
						</g>
					</g>
				</g>
				<g>
					<path class="st5" d="M207.6,11.5c0,2.7-2.2,4.9-4.9,4.9c-2.7,0-4.9-2.2-4.9-4.9c0-2.7,2.2-4.9,4.9-4.9
						C205.4,6.5,207.6,8.7,207.6,11.5z"/>
					<path class="st5" d="M193.4,39.8c0,2.7-2.2,4.9-4.9,4.9c-2.7,0-4.9-2.2-4.9-4.9c0-2.7,2.2-4.9,4.9-4.9
						C191.1,34.9,193.4,37.1,193.4,39.8z"/>
					<path class="st5" d="M160.1,23.2c0,2.7-2.2,4.9-4.9,4.9c-2.7,0-4.9-2.2-4.9-4.9c0-2.7,2.2-4.9,4.9-4.9
						C157.9,18.2,160.1,20.4,160.1,23.2z"/>
					<path class="st5" d="M137,49.7c0,2.7-2.2,4.9-4.9,4.9c-2.7,0-4.9-2.2-4.9-4.9c0-2.7,2.2-4.9,4.9-4.9
						C134.8,44.8,137,47,137,49.7z"/>
					<path class="st5" d="M220.1,61c0,2.7-2.2,4.9-4.9,4.9c-2.7,0-4.9-2.2-4.9-4.9c0-2.7,2.2-4.9,4.9-4.9
						C217.9,56.1,220.1,58.3,220.1,61z"/>
					<path class="st5" d="M249.6,42.9c0,2.7-2.2,4.9-4.9,4.9c-2.7,0-4.9-2.2-4.9-4.9c0-2.7,2.2-4.9,4.9-4.9
						C247.4,38,249.6,40.2,249.6,42.9z"/>
					<path class="st5" d="M259.5,81.9c0,2.7-2.2,4.9-4.9,4.9c-2.7,0-4.9-2.2-4.9-4.9c0-2.7,2.2-4.9,4.9-4.9
						C257.3,76.9,259.5,79.1,259.5,81.9z"/>
					<path class="st5" d="M174.3,61c0,2.7-2.2,4.9-4.9,4.9c-2.7,0-4.9-2.2-4.9-4.9c0-2.7,2.2-4.9,4.9-4.9
						C172,56.1,174.3,58.3,174.3,61z"/>
					<path class="st5" d="M132.9,81.9c0,2.7-2.2,4.9-4.9,4.9c-2.7,0-4.9-2.2-4.9-4.9c0-2.7,2.2-4.9,4.9-4.9
						C130.7,76.9,132.9,79.1,132.9,81.9z"/>
				</g>
				<path class="st7" d="M206.6,105.1c-0.5,3.3-4.2,2.6-14.9,2.6c-10.7,0-17.1,0.4-17.4-3.2c-0.2-3.1,6.6-3.5,17.4-3.5
					C202.4,100.9,207,101.9,206.6,105.1z"/>
				<path class="st8" d="M196.3,108.5c0,2.8-2.3,3.3-5.1,3.3c-2.8,0-5.1-0.6-5.1-3.3c0-2.8,2.3-5.1,5.1-5.1
					C194,103.5,196.3,105.7,196.3,108.5z"/>
				<path class="st1" d="M181.9,202.5c0,0,8.1,2.3,18.6,0"/>
				<path class="st9" d="M154.7,176.4c0.2-0.9,73.3-1.4,73.5,0c2.4,19.2-6.7,28.7-6.7,28.7l-8.8-4.4l-17.3,6.8l-6.3-5l-12.2,6.5
					l-13.3-8.3l-3.3,3.6C160.3,204.3,151.3,191.3,154.7,176.4z"/>
				<g>
					<g>
						<path class="st2" d="M168.7,102.7c0,1.4-1.1,2.5-2.5,2.5l0,0c-1.4,0-2.5-1.1-2.5-2.5l0-2.1c0-1.4,1.1-2.5,2.5-2.5l0,0
							c1.4,0,2.5,1.1,2.5,2.5L168.7,102.7z"/>
						<path class="st2" d="M218.8,102.6c0,1.4-1.1,2.5-2.5,2.5l0,0c-1.4,0-2.5-1.1-2.5-2.5l0-2.1c0-1.4,1.1-2.5,2.5-2.5l0,0
							c1.4,0,2.5,1.1,2.5,2.5V102.6z"/>
					</g>
				</g>
				<line class="st10" x1="193.6" y1="118" x2="197.8" y2="118"/>
			</g>
			<g>
				<path class="st10" d="M129.2,31.6c-4.6,3.6-12.8,10.9-10.9,17.3c1,2.8,4.1,5.8,12.1,0.9c8-5,23.7-12.4,32.9-14.5
					c21.2-6.4-4.1-11.1-14.9-11.8C142.2,23,133.8,28,129.2,31.6z"/>
				<path class="st10" d="M260.8,47.9c0,0,11.3,11.3,7.1,19.2c-1.5,2.6-5.2,4.8-12.1-1.7c-6.8-6.5-20.7-17.1-29.2-21.1
					c-3.3-1.7-3.4-14.2,12.1-12.8C243.7,31.8,255.6,41.3,260.8,47.9z"/>
				<path class="st10" d="M166.8,31.9c2.1,7.1,32.3,7.8,37.4,5.7c7.6,1.5,3.6-4.6,2.5-7.8c-1.2-3.1-4.8-9.5-14.9-11.8
					c-10.1-2.3-37.6-1.1-43.4,3C141.5,28.4,163.5,20.9,166.8,31.9z"/>
				<path class="st10" d="M226,23.4c0,0-31.3-12.7-36.1-5.1c-1.3,2.7,10.2,1.8,11.9,12.3C203.7,42.7,227,48,234,49.2
					c3.2,1.9,13.4-4.8,3.9-17.3C234.9,27.6,236.8,27.6,226,23.4z"/>
				<path class="st10" d="M234,14.9c0,0-2.2,6.7,0.8,11c1.9,4.2,4.2,20.4-2.1,15.7c-6.3-4.7-15.3-11-14.9-27.8
					c1-8.6,15.8-8.6,17.8-3.8C236.4,11.6,234,14.9,234,14.9z"/>
				<path class="st10" d="M246.5,37.8c0,0,8.5-2.8,7.1-11.5c-0.8-4.9,2.9-4.5,5.3-2.6c2.4,1.9,6.9,7.7,3.4,12.9
					c-3.5,5.2-10.6,12.8-18.8,10.6C240,45.9,242.9,39.9,246.5,37.8z"/>
				<path class="st10" d="M234.7,27c0,0-0.7,12.9-6.7,19c-1.9,2.3-1.2,6.9,5.7,9.6c4.2,1.7,8.2-2.4,10.1-6.1
					c2.5-4.8,5.9-13.6,1.1-19.8C239.4,22.7,235.1,23.5,234.7,27z"/>
			</g>
			<g>
				<path class="st4" d="M236.6,123.6c-0.5,0-1-0.1-1.4-0.3c-0.8-0.4-1.3-1.2-1.2-2.1c0.4-5.8,37-26,39-26.7
					c0.2-0.1,0.3-0.1,0.5-0.1c0.5,0,1,0.3,1.3,0.7c0.4,0.6,0.2,1.4-0.3,1.9C269.3,101.5,243.3,123.6,236.6,123.6z"/>
				<path class="st2" d="M273.5,95.9c0,0-30.4,26.1-36.9,26.1c-0.3,0-0.5,0-0.7-0.1C231.3,119.6,270,97.2,273.5,95.9 M273.5,92.9
					c-0.3,0-0.7,0.1-1,0.2c-2.2,0.8-12.4,6.6-20.7,11.8c-19,11.9-19.1,14.5-19.3,16.2c-0.1,1.5,0.7,2.8,2,3.5c0.6,0.3,1.3,0.5,2,0.5
					c2.5,0,7.2-1.6,22.7-13.7c8.4-6.5,16.1-13.1,16.1-13.2c1.1-0.9,1.4-2.5,0.6-3.8C275.6,93.5,274.6,92.9,273.5,92.9L273.5,92.9z
					 M273.5,98.9L273.5,98.9L273.5,98.9L273.5,98.9z"/>
			</g>
			<path class="st1" d="M219.3,133.1c0,0,13.3-1.2,15.8-12.9c-3.3-3.2-2.4-11.1,4.4-11.2c6.8-0.1,11,5.9,9.3,13.2
				c-2.2,9.7-10.5,23.2-24.1,29.1"/>
		</g>
		<path class="st10" d="M235.5,67.9c0,0-11.2,25.4,0,25.4C246.7,93.3,235.5,67.9,235.5,67.9z"/>
		<path class="st1" d="M160.5,132.5c0,0-17.9-8.7-24.1-7.7c-7.7,1.3,2.7,14.8,2.7,14.8s11.6,7.9,17.9,11.4c0,0,0.7-0.9,1-5.8"/>
		<g>
			<g>
				<path class="st8" d="M294.9,121.3L294.9,121.3c-2.3,0-4.1-1.9-4.1-4.1l1.1-13.1c0-2.3,0.8-3.3,3.1-3.3l0,0c2.3,0,3,1.1,3,3.3
					l1.2,13.1C299.1,119.5,297.2,121.3,294.9,121.3z"/>
				<path class="st8" d="M300.3,126.5h-12c-3.6,0-6.5-2.9-6.5-6.5l0,0c0-3.6,2.9-6.5,6.5-6.5h12c3.6,0,6.5,2.9,6.5,6.5l0,0
					C306.8,123.5,303.9,126.5,300.3,126.5z"/>
				<path class="st8" d="M313.9,128.7c0-4.8-3.9-8.7-8.8-8.7H283c-4.8,0-8.8,3.9-8.8,8.7c0,0,2.2,43.5,2.2,43.7
					c0,4.6,7.9,8.4,17.6,8.4c9.7,0,17.6-3.7,17.6-8.4C311.7,172.3,313.9,128.7,313.9,128.7z"/>
			</g>
			<g>
				<path class="st11" d="M152.2,156c0,4.8-4.3,7.1-9.7,7.1c-5.3,0-9.7-2.3-9.7-7.1c0-4.8,4.3-8.6,9.7-8.6
					C147.9,147.4,152.2,151.3,152.2,156z"/>
				<path class="st11" d="M185.3,156.6c0,4.8-4.3,7.1-9.7,7.1c-5.3,0-9.7-2.3-9.7-7.1c0-4.8,4.3-8.6,9.7-8.6
					C181,148,185.3,151.9,185.3,156.6z"/>
				<path class="st11" d="M218.4,156.6c0,4.8-4.3,7.1-9.7,7.1c-5.3,0-9.7-2.3-9.7-7.1c0-4.8,4.3-8.6,9.7-8.6
					C214.1,148,218.4,151.9,218.4,156.6z"/>
				<path class="st11" d="M251.6,156.6c0,4.8-4.3,7.1-9.7,7.1c-5.3,0-9.7-2.3-9.7-7.1c0-4.8,4.3-8.6,9.7-8.6
					C247.2,148,251.6,151.9,251.6,156.6z"/>
			</g>
			<path class="st3" d="M296.7,175.8c0,17.2-50.4,17.1-112.6,17.1c-62.2,0-112.6,0.1-112.6-17.1c0-17.2,50.4-16.3,112.6-16.3
				C246.3,159.4,296.7,158.5,296.7,175.8z"/>
			<g>
				<path class="st11" d="M63.2,352.7c2.1,4.6,4.5,9,8.8,9h227.5c4.5,0,6.6-4.8,8.8-9.5c29.1-60.3,16.4-149.4,16.4-149.4
					c0.7-6.6-3.4-12.4-8.8-12.4H98.5H49.8c-5.6,0-9.8,6.2-8.8,12.9C41,203.3,35.3,291,63.2,352.7z"/>
				<g>
					<line class="st10" x1="99.9" y1="361.7" x2="99.9" y2="190.4"/>
					<line class="st10" x1="106.3" y1="361.7" x2="106.3" y2="190.4"/>
				</g>
				<g>
					<line class="st10" x1="155.9" y1="361.7" x2="155.9" y2="190.4"/>
					<line class="st10" x1="162.3" y1="361.7" x2="162.3" y2="190.4"/>
				</g>
				<g>
					<line class="st10" x1="212" y1="361.7" x2="212" y2="190.4"/>
					<line class="st10" x1="218.3" y1="361.7" x2="218.3" y2="190.4"/>
				</g>
				<g>
					<line class="st10" x1="268" y1="361.7" x2="268" y2="190.4"/>
					<line class="st10" x1="274.3" y1="361.7" x2="274.3" y2="190.4"/>
				</g>
			</g>
			<g>
				<rect x="313.7" y="186.2" class="st11" width="55.8" height="12.5"/>
				<polygon class="st11" points="343.8,175.6 370,186.2 313.7,186.2 313.7,175.6 				"/>
			</g>
			<g>
				<rect y="186.2" class="st11" width="55.8" height="12.5"/>
				<polygon class="st11" points="25.9,175.6 0,186.2 55.8,186.2 55.8,175.6 				"/>
			</g>
			<path class="st8" d="M60.3,345.9c-0.8,0.1-1.8-8.3-3.8-6.9c-8.2,5.7-6.2,18.9,3.8,28.8c7.1,6.9,68.4,16,123.7,14.5
				c55.3-1.5,113.6-2.2,131.2-19.3c11.1-10.8,9.2-23.7,0.4-25.4c-1.3-0.2-2.6,8.2-4.4,8.4c-6.4,0.7-41.4,15.3-122.5,14.6
				C111.5,360.4,65.7,345.3,60.3,345.9z"/>
			<g>
				<g>
					<path class="st11" d="M187.6,358.5c0,2.5-2.1,4.6-4.6,4.6h-0.4c-2.5,0-4.6-2.1-4.6-4.6V245.6c0-2.5,2.1-4.6,4.6-4.6h0.4
						c2.5,0,4.6,2.1,4.6,4.6V358.5z"/>
					<path class="st11" d="M146.3,345.7c-1.8,1.8-4.7,1.8-6.5,0l-0.3-0.3c-1.8-1.8-1.8-4.7,0-6.5l79.9-79.8c1.8-1.8,4.7-1.8,6.5,0
						l0.3,0.3c1.8,1.8,1.8,4.7,0,6.5L146.3,345.7z"/>
					<path class="st11" d="M243.5,302.7c0,2.5-2.1,4.6-4.6,4.6h-113c-2.5,0-4.6-2.1-4.6-4.6v-0.4c0-2.5,2.1-4.6,4.6-4.6h113
						c2.5,0,4.6,2.1,4.6,4.6V302.7z"/>
					<path class="st11" d="M225.4,346.2c-1.8,1.8-4.7,1.8-6.5,0L139,266.4c-1.8-1.8-1.8-4.7,0-6.5l0.3-0.3c1.8-1.8,4.7-1.8,6.5,0
						l79.9,79.8c1.8,1.8,1.8,4.7,0,6.5L225.4,346.2z"/>
				</g>
				<path class="st11" d="M205.6,304c0,13.4-10.8,24.2-24.2,24.2c-13.4,0-24.2-10.8-24.2-24.2c0-13.4,10.8-24.2,24.2-24.2
					C194.8,279.8,205.6,290.7,205.6,304z"/>
				<path class="st11" d="M191.8,304c0,5.7-4.6,10.4-10.4,10.4c-5.7,0-10.4-4.6-10.4-10.4c0-5.7,4.6-10.4,10.4-10.4
					C187.1,293.7,191.8,298.3,191.8,304z"/>
				<path class="st11" d="M181.4,233.9c-38.8,0-70.2,31.4-70.2,70.2c0,38.7,31.5,70.2,70.2,70.2c38.8,0,70.2-31.4,70.2-70.2
					C251.6,265.3,220.2,233.9,181.4,233.9z M181.4,356.9c-29.2,0-52.9-23.6-52.9-52.8c0-29.2,23.7-52.8,52.9-52.8
					c29.2,0,52.9,23.6,52.9,52.8C234.3,333.2,210.6,356.9,181.4,356.9z"/>
			</g>
			<path class="st2" d="M324.5,198.3H43.6c-4.3,0-7.8-3.5-7.8-7.8l0,0c0-4.3,3.5-7.8,7.8-7.8h280.9c4.3,0,7.8,3.5,7.8,7.8l0,0
				C332.4,194.8,328.8,198.3,324.5,198.3z"/>
			<path class="st8" d="M324.5,188.6H43.6c-4.3,0-7.8-3.5-7.8-7.8l0,0c0-4.3,3.5-7.8,7.8-7.8h280.9c4.3,0,7.8,3.5,7.8,7.8l0,0
				C332.4,185.1,328.8,188.6,324.5,188.6z"/>
			<path class="st12" d="M41,192.8c0,0-4.2,108.8,0,113.4c23.3-3.5,37.6-9.9,45-7c7.4,2.9,12.7-5.3,22.3-4.1
				c9.5,1.2,38.1,0.6,38.1,0.6l3.2-102.9C149.6,192.8,76.5,201,41,192.8z"/>
			<path class="st12" d="M147.1,192.8c0,0,2.3,38.6,0,47.4c-2.3,8.8-2.3,49.1,0,53.8c2.3,4.7,12.3-2.9,22.2,0
				c10,2.9,55,6.6,67.9,1.6c12.9-5.1,12.3-9.7,12.3-9.7s1.8-72.5-7-93C225,193.4,147.1,192.8,147.1,192.8z"/>
			<path class="st12" d="M239.8,193c0,0,14.1,94.2,8.6,103.7c11.7-0.6,39.9-2.5,52.4,0c12.5,2.5,30.5,1.3,39.9-3.2
				c2.3-13.3,0-46.2-7.8-60.7c-7.8-14.5-5.5-41.8-14.1-42.4C310.2,189.9,239.8,193,239.8,193z"/>
			<path class="st12" d="M54.8,196.7H43.2c-0.5,0-1-0.4-1-1v-22.6c0-0.5,0.4-1,1-1h11.6c0.5,0,1,0.4,1,1v22.6
				C55.8,196.3,55.3,196.7,54.8,196.7z"/>
			<path class="st12" d="M192.9,196.7h-11.6c-0.5,0-1-0.4-1-1v-22.6c0-0.5,0.4-1,1-1h11.6c0.5,0,1,0.4,1,1v22.6
				C193.8,196.3,193.4,196.7,192.9,196.7z"/>
			<path class="st12" d="M323,196.7h-11.6c-0.5,0-1-0.4-1-1v-22.6c0-0.5,0.4-1,1-1H323c0.5,0,1,0.4,1,1v22.6
				C324,196.3,323.5,196.7,323,196.7z"/>
			<g>
				<path class="st11" d="M35.7,124.5c0,0,30.9,7.7,37.4,4.7c3.2-0.4,13.6,0,13.6,0s16,2.7,34.6-4.7c-15.7,7.8-26,11.9-26,11.9
					s-36.2,0.4-36.9,0.4C57.7,136.8,37.4,126.5,35.7,124.5z"/>
				<path class="st11" d="M35.7,124.5c0,0,18.4,31.7,21.6,32.3c3.2,0.6,36.8-0.6,39.9,0c3.2,0.6,21.6-19,24.1-32.3
					c-12,3.8-24.9,7.9-30,8.5c-5.1,0.6-18.5,0.2-23.7,0.2C63.2,133.2,40.2,128.3,35.7,124.5z"/>
				<path class="st11" d="M91.4,133.1C91.4,133.1,91.4,133.1,91.4,133.1c-5.2,0.6-18.6,0.3-23.8,0.2c-0.2,0-0.4,0-0.7,0
					c-2.7,9.4-7,17.1-10.9,22.7c0.5,0.5,0.9,0.9,1.2,0.9c3.2,0.6,36.8-0.6,39.9,0c0,0,0.1,0,0.1,0C94.2,148.7,92.4,139.8,91.4,133.1
					z"/>
			</g>
			<g>
				<path class="st11" d="M35.7,136.8c0,0,18.4,31.7,21.6,32.3c3.2,0.6,36.8-0.6,39.9,0c3.2,0.6,21.6-19,24.1-32.3
					c-12,3.8-24.9,7.9-30,8.5c-5.1,0.6-18.5,0.2-23.7,0.2C63.2,145.5,40.2,140.6,35.7,136.8z"/>
				<path class="st11" d="M91.4,145.4C91.4,145.4,91.4,145.4,91.4,145.4c-5.2,0.6-18.6,0.3-23.8,0.2c-0.2,0-0.4,0-0.7,0
					c-2.7,9.4-7,17.1-10.9,22.7c0.5,0.5,0.9,0.9,1.2,0.9c3.2,0.6,36.8-0.6,39.9,0c0,0,0.1,0,0.1,0C94.2,161,92.4,152.1,91.4,145.4z"
					/>
			</g>
			<g>
				<path class="st11" d="M35.7,148.3c0,0,18.4,31.7,21.6,32.3c3.2,0.6,36.8-0.6,39.9,0c3.2,0.6,21.6-19,24.1-32.3
					c-12,3.8-24.9,7.9-30,8.5c-5.1,0.6-18.5,0.2-23.7,0.2C63.2,157,40.2,152.1,35.7,148.3z"/>
				<path class="st11" d="M91.4,156.8C91.4,156.8,91.4,156.8,91.4,156.8c-5.2,0.6-18.6,0.3-23.8,0.2c-0.2,0-0.4,0-0.7,0
					c-2.7,9.4-7,17.1-10.9,22.7c0.5,0.5,0.9,0.9,1.2,0.9c3.2,0.6,36.8-0.6,39.9,0c0,0,0.1,0,0.1,0C94.2,172.5,92.4,163.5,91.4,156.8
					z"/>
			</g>
		</g>
		<g>
			<g>
				<path class="st4" d="M141.4,150.1c-0.6,0-1.2-0.4-1.4-1c0-0.1-4-10.3-7.4-20.8c-7.2-22.1-5.2-23.9-4.2-24.9
					c0.5-0.5,1.1-0.6,1.5-0.6c1.5,0,3.7,0,8.7,22c2.3,10.4,4.3,21.7,4.3,23.8c0,0.7-0.5,1.3-1.2,1.5
					C141.6,150.1,141.5,150.1,141.4,150.1z"/>
				<path class="st2" d="M129.9,104.3c3.9,0,11.5,40.7,11.5,44.3c0,0-15.7-40.5-11.9-44.1C129.6,104.4,129.8,104.3,129.9,104.3
					 M129.9,101.3C129.9,101.3,129.9,101.3,129.9,101.3c-0.9,0-1.8,0.4-2.5,1c-2,1.9-3.1,5.3,3.8,26.5c3.4,10.5,7.4,20.8,7.4,20.9
					c0.5,1.2,1.6,1.9,2.8,1.9c0.2,0,0.4,0,0.6-0.1c1.4-0.3,2.4-1.5,2.4-3c0-2.4-2.2-14.4-4.4-24.1c-1.4-6.1-2.7-11-3.8-14.7
					C134.5,104.4,132.9,101.3,129.9,101.3L129.9,101.3z"/>
			</g>
			<path class="st1" d="M145.7,128.1c1.4,4.8-1.9,10-7.3,11.6c-5.4,1.6-11-1.1-12.4-5.9c-1.4-4.8,1.9-10,7.3-11.6
				C138.8,120.6,144.4,123.3,145.7,128.1z"/>
			<path class="st1" d="M148.1,128c0.7,2.6-1,5.3-3.9,6.2c-2.9,0.8-4.3-0.6-5-3.2c-0.7-2.6-0.5-5.3,2.3-6.2
				C144.4,124,147.4,125.4,148.1,128z"/>
		</g>
	</g>
	<g>
		<g>
			<g>
				<path class="st0" d="M305.8,390.8c-14.1,0-25.5,3.6-25.5,8.2c0,0.6,0.2,1.1,0.5,1.6c-5.5-1.7-12.1-2.7-19.3-2.7
					c-4.8,0-9.4,0.4-13.5,1.2c1.2-1.2,1.9-2.4,1.9-3.7c0-5.8-13.4-10.5-30-10.5c-16.6,0-30,4.7-30,10.5c0,4,6.3,7.4,15.6,9.2
					c-4.2,2-6.8,4.5-6.8,7.3c0,6.2,12.8,11.3,28.6,11.3c3.3,0,6.4-0.2,9.3-0.6c6.2,3,15.1,4.9,25,4.9c18.6,0,33.7-6.6,33.7-14.8
					c0-2.6-1.5-5-4.1-7.1c4.2,0.9,9.3,1.5,14.8,1.5c14.1,0,25.5-3.6,25.5-8.2C331.3,394.4,319.9,390.8,305.8,390.8z"/>
				<path class="st0" d="M322.2,370.4c-9.3,0-16.8,4-16.8,8.9c0,4.9,7.5,8.9,16.8,8.9c9.3,0,16.8-4,16.8-8.9
					C339,374.4,331.4,370.4,322.2,370.4z"/>
			</g>
			<g>
				<path class="st11" d="M317.6,383.5c10.6,0,15.1-4.1,16.1-10.3c0.7-4.2-0.8-8.9-4.4-12.1c0.4-1.9,1.6-6.5-0.4-6.5
					c-1.2-0.5-4.6,2-5.2,3c-1.3-0.6-3.4-1.3-6.3-1.3c-3.2,0-6.2,0.9-8.8,2.5c-0.6,0.4-2.8,1.8-3.7,2.9c-3.1,3.1-5,7.2-5,11.2
					C300,378.7,306.9,383.5,317.6,383.5z"/>
				<path class="st10" d="M313.1,368.3c-0.3,2.4,1.4,4.6,3.9,4.9c2.4,0.3,4.6-1.4,4.9-3.8c0.3-2.4-1.4-4.6-3.9-4.9
					C315.6,364.1,313.4,365.8,313.1,368.3z"/>
				<path class="st10" d="M309.7,367c-0.3,2.1-2.2,3.6-4.3,3.4c-2.1-0.3-3.6-2.2-3.4-4.3c0.2-2.1,2.2-3.6,4.3-3.4
					C308.4,363,309.9,364.9,309.7,367z"/>
				<path class="st2" d="M316.1,368.5c-0.1,0.3,0.4,0.7,1.2,0.9c0.7,0.3,1.4,0.4,1.5,0.1c0.1-0.3-0.4-0.8-1.1-1.1
					C317,368.2,316.3,368.2,316.1,368.5z"/>
				<path class="st2" d="M307,366.7c0,0.3-0.5,0.5-1.2,0.6c-0.7,0.1-1.2,0.1-1.3-0.3c0-0.3,0.5-0.6,1.2-0.7
					C306.4,366.2,307,366.3,307,366.7z"/>
			</g>
			<g>
				<path class="st11" d="M238.3,366.4c-3-1.8-6.3-3.1-9.9-3.6c-0.7-2-2-4.1-4.1-3.8c-2,0.3-3.3,2.1-4,3.9c-2.2,0.4-4,1-5.5,1.6
					c-2.5,0.9-6.6,3.3-8.8,5.4c-5.6,5-8.2,12.1-7,17.5c2,9.3,8.7,11.5,25.3,11.5c11.3,0,24.3-2.4,25.6-11.4
					C250.7,380.7,247.1,371.9,238.3,366.4z"/>
				<g>
					<path class="st10" d="M222.2,377.7c0.4,3.5-2.1,6.7-5.6,7.1c-3.5,0.4-6.7-2.1-7.1-5.6c-0.4-3.5,2.1-6.7,5.6-7.1
						C218.6,371.7,221.8,374.2,222.2,377.7z"/>
					<path class="st2" d="M217.4,378.1c0,0.8-0.7,1.5-1.5,1.5c-0.8,0-1.5-0.7-1.5-1.5c0-0.8,0.7-1.5,1.5-1.5
						C216.7,376.6,217.4,377.3,217.4,378.1z"/>
				</g>
				<g>
					<path class="st10" d="M240.6,377.7c0.4,3.5-2.1,6.7-5.6,7.1c-3.5,0.4-6.7-2.1-7.1-5.6c-0.4-3.5,2.1-6.7,5.6-7.1
						C237,371.7,240.2,374.2,240.6,377.7z"/>
					<path class="st2" d="M235.8,378.1c0,0.8-0.7,1.5-1.5,1.5c-0.8,0-1.5-0.7-1.5-1.5c0-0.8,0.7-1.5,1.5-1.5
						C235.1,376.6,235.8,377.3,235.8,378.1z"/>
				</g>
			</g>
			<g>
				<path class="st11" d="M318.2,381.3c-3.1-2-8.6-3.9-14.4-4.2c-1.1-1.4-2.7-2.8-4.8-2.8c-2.1,0-3.4,1.8-4.1,3.5
					c-14.8,3-18.7,14.2-17,18.8c1.9,5.3,7.8,7.2,22.8,7.2c10.2,0,22.6-1,25.6-7.4C328.1,392.5,326.1,386.8,318.2,381.3z"/>
				<g>
					<path class="st10" d="M318.6,385.8c1.9,2.3,2.2,5.1-0.2,6.8c-1.8,1.2-4,0.7-6-1.2c-2.1-2-3.1-5.1-0.8-7
						C313.8,382.5,316.7,383.5,318.6,385.8z"/>
					<path class="st2" d="M316.8,387.5c0.3,0.7-0.1,1.4-0.7,1.6c-0.7,0.3-1.4-0.1-1.7-0.7c-0.3-0.7,0.1-1.4,0.7-1.6
						C315.8,386.5,316.6,386.8,316.8,387.5z"/>
				</g>
			</g>
			<g>
				<path class="st11" d="M215.2,394c3.1-2,8.6-3.9,14.4-4.2c1.1-1.4,2.7-2.8,4.8-2.8c2.1,0,3.4,1.8,4.1,3.5
					c14.8,3,18.7,14.2,17.1,18.8c-1.9,5.3-7.8,7.2-22.8,7.2c-10.2,0-22.6-1-25.6-7.4C205.3,405.2,207.3,399.5,215.2,394z"/>
				<g>
					<path class="st10" d="M214.8,398.5c-1.9,2.3-2.2,5.1,0.2,6.8c1.8,1.2,4,0.7,6-1.2c2.1-2,3.1-5.1,0.8-7
						C219.6,395.2,216.7,396.3,214.8,398.5z"/>
					<path class="st2" d="M216.6,400.2c-0.3,0.6,0.1,1.4,0.7,1.6c0.7,0.3,1.4-0.1,1.6-0.7c0.3-0.7-0.1-1.4-0.7-1.7
						C217.6,399.2,216.8,399.5,216.6,400.2z"/>
				</g>
			</g>
			<g>
				<path class="st11" d="M262.6,423.2c-16.6,0-23.6-6.5-25.2-16.1c-1.1-6.6,1.2-13.9,6.8-18.9c-0.7-2.9-2.5-10.1,0.6-10.1
					c1.8-0.7,7.3,3.2,8.2,4.7c2-1,5.2-2,9.8-2c5,0,9.7,1.5,13.7,3.9c0.9,0.6,4.3,2.8,5.7,4.5c4.9,4.9,7.8,11.3,7.8,17.5
					C290.1,415.8,279.3,423.2,262.6,423.2z"/>
				<path class="st10" d="M269.6,399.4c0.5,3.8-2.3,7.2-6,7.6c-3.8,0.4-7.2-2.3-7.6-6c-0.5-3.8,2.3-7.2,6-7.6
					C265.7,392.9,269.1,395.6,269.6,399.4z"/>
				<path class="st10" d="M275,397.5c0.4,3.3,3.4,5.7,6.7,5.3c3.3-0.4,5.7-3.4,5.3-6.7c-0.4-3.3-3.4-5.7-6.7-5.3
					C277,391.2,274.6,394.2,275,397.5z"/>
				<path class="st2" d="M264.9,399.9c0.2,0.5-0.7,1-1.8,1.5c-1.1,0.4-2.1,0.6-2.3,0.1c-0.2-0.5,0.6-1.3,1.7-1.8
					C263.6,399.2,264.7,399.3,264.9,399.9z"/>
				<path class="st2" d="M279.1,396.9c-0.1,0.5,0.8,0.7,1.8,0.9c1.1,0.1,1.9,0.1,2-0.4c0.1-0.5-0.7-1-1.8-1.2
					C280.1,396.1,279.2,396.4,279.1,396.9z"/>
			</g>
		</g>
	</g>
</g>
</svg>
