<?xml version="1.0" encoding="utf-8"?>
<!-- Generator: Adobe Illustrator 23.0.3, SVG Export Plug-In . SVG Version: 6.00 Build 0)  -->
<svg version="1.1" id="圖層_1" xmlns="http://www.w3.org/2000/svg" xmlns:xlink="http://www.w3.org/1999/xlink" x="0px" y="0px"
	 viewBox="0 0 114 134" style="enable-background:new 0 0 114 134;" xml:space="preserve">
<style type="text/css">
	.st0{fill:#D0D1D1;}
	.st1{fill:#FFD19D;}
	.st2{fill:#604C3F;}
	.st3{fill:#FFFFFF;}
	.st4{fill:none;stroke:#604C3F;stroke-width:3;stroke-linecap:round;stroke-linejoin:round;stroke-miterlimit:10;}
	.st5{fill:#FFFFFF;stroke:#604C3F;stroke-width:3;stroke-linecap:round;stroke-linejoin:round;stroke-miterlimit:10;}
	.st6{fill:#FFD19D;stroke:#604C3F;stroke-width:3;stroke-linecap:round;stroke-linejoin:round;stroke-miterlimit:10;}
	.st7{fill:#FFFFFF;stroke:#604C3F;stroke-width:3.3252;stroke-linecap:round;stroke-linejoin:round;stroke-miterlimit:10;}
</style>
<g>
	<path class="st0" d="M91.8,125.1c0,3.8-17.2,6.9-38.3,6.9c-21.2,0-38.3-3.1-38.3-6.9c0-3.8,17.2-6.9,38.3-6.9
		C74.7,118.1,91.8,121.2,91.8,125.1z"/>
	<g>
		<g>
			<g>
				<path class="st1" d="M70.6,108.7c-7.5,0-16.7-1.9-27.3-5.6c-2-0.5-3.7-2.5-5-5.6c-3.6-9-5.1-34.4,15.2-65.9
					c2.4-3.9,11.3-16.4,28.8-16.4c3.2,0,6.5,0.4,9.9,1.3c14.4,3.5,19.9,14.3,20.3,23.3c0.5,10.9-6.2,20.7-16.6,24.7
					c0,0.2,0.1,0.4,0.1,0.7c1.1,6.8,4.2,24.8-4.9,35.6C86.6,106,79.6,108.7,70.6,108.7z"/>
				<g>
					<path class="st2" d="M82.4,16.6c2.9,0,6.1,0.4,9.5,1.2c25.3,6.2,24.9,37.9,2.4,45.5c0.5,4.9,10.2,43.8-23.7,43.8
						c-7,0-15.8-1.6-26.8-5.6C36.6,99.9,31.2,69,54.8,32.3C55.3,31.7,63.7,16.7,82.4,16.6 M82.4,13.6C82.4,13.6,82.4,13.6,82.4,13.6
						c-18.3,0-27.6,13-30,17l0,0.1c-20.6,32-19.1,58-15.4,67.3c1.8,4.5,4.2,6,5.9,6.5c10.7,3.8,20,5.7,27.7,5.7
						c9.5,0,16.8-2.9,21.7-8.6c9.3-11,6.6-28.9,5.3-36.3c10.4-4.5,16.9-14.6,16.4-25.7c-0.4-9.5-6.2-20.9-21.4-24.7
						C89.1,14.1,85.6,13.6,82.4,13.6L82.4,13.6z"/>
				</g>
			</g>
			<path class="st3" d="M94.2,63.4c12.6-4.3,18.3-16.1,16.4-26.8c-1.3,5.9-6.1,12.5-17.8,18.9c-7.5,2-9.4,22.2-6.5,33.5
				c0,2.7,0.3,7.6-2.2,15.2C101.4,95.1,94.7,67.4,94.2,63.4z"/>
		</g>
		<g>
			<path class="st1" d="M28.5,124.9c-4.1,0-5.2-5.8-5.4-8c-0.2-0.1-0.4-0.3-0.7-0.4c-6.8-3.9-13.6-10.8-6.8-29.3
				c1.7-4.4,3.5-13.3,3-15.3c-5.3-2.3-14.1-7.2-16.5-15.4c-1.5-5-0.4-10.5,3.4-16.2c0-1.7,0.2-8,2.4-15.2
				c3.4-11.2,9.9-19.6,18.8-24.2c0.1,0,0.2-0.1,0.3-0.1c0.5-0.1,1.1-0.2,1.6-0.2c2.5,0,3.9,1.7,4.8,3.4c2.9-0.5,6.4-0.7,9.8-0.7
				c3.5,0,6.9,0.3,9.8,0.8c1.4-1.9,4-3.6,7.3-3.6c0.8,0,1.6,0.1,2.5,0.3c5.9,1.6,15.8,13.3,20.6,27.7c3.5,10.5,5.4,25.8-5.1,39.6
				c0.1,0.7,0.4,1.9,0.6,3.1c2.1,10.4,7.8,38.2-6.8,45.2c-0.3,0.1-0.6,0.4-0.9,0.6c-0.4,0.3-0.8,0.6-1.3,0.8c-2,2.9-6.1,7.1-9.7,7.1
				c-2.7,0-3.7-3-4.3-4.9c-0.1-0.5-0.3-1.1-0.5-1.4c-0.3-0.1-0.6-0.2-0.9-0.4c-2.7-1.1-7.9-3.1-11.6-3.1c-1.8,0-3.7,1.1-5.3,2
				c-0.8,0.4-1.4,0.8-2,1c-0.2,0.2-0.7,1-1,1.6c-1.2,2.1-2.9,5-6,5.2C28.7,124.9,28.6,124.9,28.5,124.9z"/>
			<g>
				<path class="st2" d="M60.3,2c0.7,0,1.4,0.1,2.1,0.3c9.4,2.5,35.1,38.9,14.4,65.4c0,3.1,10.8,39.6-5.3,47.4
					c-0.8,0.4-1.6,1.3-2.5,1.5c-2,3.1-5.9,6.8-8.7,6.8c0,0,0,0,0,0c-2.4,0-2.7-5.1-3.7-6.1c-2-0.7-8.7-3.8-13.4-3.8
					c-3.3,0-6.4,2.7-7.9,3.2c-1.5,0.5-2.8,6.5-6.5,6.7c-0.1,0-0.1,0-0.2,0c-3.5,0-4-7.4-4-7.4c-2.5-2-15.8-5.8-7.5-28.3
					c1.5-4,4.5-16.2,2.5-17C12.1,67.5-4.6,58.1,7,40.7c0,0-0.6-27.8,20.4-38.5c0.4-0.1,0.8-0.2,1.2-0.2c1.8,0,3,1.3,3.9,3.6
					c2.8-0.5,6.6-0.9,10.7-0.9c3.5,0,7.2,0.3,10.5,1C54.6,3.9,57.2,2,60.3,2 M60.3-1c-3.4,0-6.2,1.6-7.9,3.5
					c-2.8-0.4-5.9-0.7-9.2-0.7c-3.1,0-6.3,0.2-9,0.6c-1-1.6-2.7-3.3-5.6-3.3c-0.6,0-1.3,0.1-2,0.3c-0.2,0.1-0.4,0.1-0.6,0.2
					C5.6,10,4.1,34.6,4,39.9c-3.8,6-4.9,11.7-3.3,17.1c2.5,8.4,11,13.5,16.5,16c0,2.7-1.7,10.2-3,13.7c-8.1,22.1,3.2,28.6,7.5,31.1
					c0,0,0,0,0,0c0.1,0.8,0.3,1.8,0.6,2.8c1.5,5.1,4.5,5.8,6.2,5.8c0.1,0,0.2,0,0.4,0c3.9-0.2,5.9-3.8,7.2-6
					c0.2-0.4,0.5-0.8,0.6-1.1c0.6-0.3,1.2-0.6,1.8-1c1.4-0.8,3.1-1.8,4.5-1.8c3.4,0,8.5,2.1,11,3c0.1,0,0.2,0.1,0.3,0.1
					c0.1,0.2,0.2,0.5,0.2,0.7c0.7,2.1,1.9,6,5.6,6c0,0,0.1,0,0.1,0c4.1-0.1,8.4-4.3,10.7-7.5c0.4-0.3,0.8-0.5,1.1-0.8
					c0.2-0.1,0.4-0.3,0.5-0.4c0,0,0.1,0,0.1,0c15.6-7.6,10-35.1,7.6-46.9c-0.2-0.8-0.3-1.7-0.5-2.4c10.5-14.2,8.5-29.8,4.9-40.5
					c-2.3-6.7-5.8-13.5-10.1-19c-4.1-5.2-8.3-8.7-11.5-9.6C62.2-0.9,61.2-1,60.3-1L60.3-1z"/>
			</g>
		</g>
		<path class="st3" d="M56.2,86c-2.5-5.1-2.1-11.6-1-14.4c11.9-0.3,18.2-7.9,20.4-13.9c2.1-6-1-16.6-10.4-17.4
			c-9.8-0.8-14.9,10-31.6,10c-16.7,0-16.4-9.1-22.3-9.9c-1.7-0.2-3-0.1-4.1,0.3c0,0,0,0,0,0C-7.7,62.7,22.9,72,22.9,72
			s-1.4,12.1-3,16c-8.9,21.7,17.4,22,20.7,22c4.7,0,17.7-1.3,20.4-6.7C65.5,94.3,58.7,91.1,56.2,86z"/>
		<g>
			<path class="st3" d="M18.8,98.7c-0.8,0-1.6-0.3-2.2-0.9c-1.2-1.2-1.2-3.2,0-4.4L28,81.9c0.6-0.6,1.4-0.9,2.2-0.9
				c0.8,0,1.6,0.3,2.2,0.9c1.2,1.2,1.2,3.2,0,4.4L21,97.8C20.4,98.4,19.6,98.7,18.8,98.7z"/>
			<path class="st2" d="M30.2,82.5c0.4,0,0.8,0.2,1.2,0.5c0.6,0.6,0.6,1.7,0,2.3L19.9,96.7c-0.3,0.3-0.7,0.5-1.2,0.5
				c-0.4,0-0.8-0.2-1.2-0.5c-0.6-0.6-0.6-1.7,0-2.3L29.1,83C29.4,82.7,29.8,82.5,30.2,82.5 M30.2,79.5
				C30.2,79.5,30.2,79.5,30.2,79.5c-1.2,0-2.4,0.5-3.3,1.4L15.5,92.3c-1.8,1.8-1.8,4.7,0,6.5c0.9,0.9,2,1.4,3.3,1.4
				c1.2,0,2.4-0.5,3.3-1.4l11.4-11.4c1.8-1.8,1.8-4.7,0-6.6C32.6,80,31.5,79.5,30.2,79.5L30.2,79.5z"/>
		</g>
		<g>
			<path class="st1" d="M37.8,89.7c-8.5,0-15.3-6.9-15.3-15.3c0-8.4,6.9-15.3,15.3-15.3S53.1,66,53.1,74.4
				C53.1,82.9,46.3,89.7,37.8,89.7z"/>
			<g>
				<path class="st2" d="M37.8,60.6c7.6,0,13.8,6.2,13.8,13.8c0,7.6-6.2,13.8-13.8,13.8C30.2,88.2,24,82,24,74.4
					C24,66.8,30.2,60.6,37.8,60.6 M37.8,57.6c-9.3,0-16.8,7.5-16.8,16.8c0,9.3,7.6,16.8,16.8,16.8c9.3,0,16.8-7.5,16.8-16.8
					C54.6,65.2,47.1,57.6,37.8,57.6L37.8,57.6z"/>
			</g>
		</g>
		<path class="st2" d="M45.6,67.1c0,0.8-0.7,1.5-1.5,1.5c-0.8,0-1.5-0.7-1.5-1.5c0-0.8,0.7-1.5,1.5-1.5
			C44.9,65.6,45.6,66.2,45.6,67.1z"/>
		<path class="st2" d="M41.1,72.9c0,0.7-0.5,1.2-1.2,1.2c-0.7,0-1.2-0.5-1.2-1.2c0-0.7,0.5-1.2,1.2-1.2
			C40.6,71.7,41.1,72.2,41.1,72.9z"/>
		<path class="st2" d="M37.3,83.4c0,0.7-0.5,1.2-1.2,1.2c-0.7,0-1.2-0.5-1.2-1.2c0-0.7,0.5-1.2,1.2-1.2
			C36.8,82.2,37.3,82.7,37.3,83.4z"/>
		<path class="st2" d="M30.6,71c0,0.7-0.5,1.2-1.2,1.2c-0.7,0-1.2-0.5-1.2-1.2c0-0.7,0.5-1.2,1.2-1.2C30.1,69.8,30.6,70.3,30.6,71z"
			/>
		<path class="st2" d="M48.2,74.9c0,0.7-0.6,1.3-1.3,1.3c-0.7,0-1.3-0.6-1.3-1.3c0-0.7,0.6-1.3,1.3-1.3
			C47.6,73.6,48.2,74.2,48.2,74.9z"/>
		<path class="st2" d="M31.9,77.8c0,0.7-0.6,1.3-1.3,1.3c-0.7,0-1.3-0.6-1.3-1.3c0-0.7,0.6-1.3,1.3-1.3
			C31.3,76.5,31.9,77.1,31.9,77.8z"/>
		<g>
			<path class="st4" d="M30.5,56.5c0,0,1.2,3.1-1.8,5.1"/>
			<path class="st4" d="M41.1,55.9c0,0-0.8,2.8,4.5,5.1"/>
			<path class="st5" d="M30.7,57.6c1,4.9,9.9,6,10.4-2"/>
		</g>
		<path class="st6" d="M60.1,73.6c-0.7,0.5-7.7,7.2-7.7,7.2s-3.2,0.1-4.3,2.8c-0.5,1.2-1.8,5.9,4.3,5.9c7,0,14.6-6.4,14.6-6.4"/>
		<path class="st3" d="M42.5,34.4c0,2.6,2.8,3,6.4,3c3.5,0,6.4-0.4,6.4-3c0-2.6-2.8-4.6-6.4-4.6C45.4,29.8,42.5,31.9,42.5,34.4z"/>
		<path class="st3" d="M15.9,34.4c0,2.6,2.9,3,6.4,3c3.5,0,6.4-0.4,6.4-3c0-2.6-2.8-4.6-6.4-4.6C18.7,29.8,15.9,31.9,15.9,34.4z"/>
		<path class="st2" d="M37.6,50.1c0,1.8-2.3,3-5.1,3c-2.8,0-5.1-1.3-5.1-3c0-2.1,2.3-3.8,5.1-3.8C35.3,46.4,37.6,48.1,37.6,50.1z"/>
		<path class="st6" d="M22.1,73.2c-1.5,5.3,0.7,7.4,1.6,8.7c2.3-0.3,4.4,0.5,4.5,3.5c0.1,3-1.9,4.5-4.9,4
			c-14.1-4.5-5.5-17.7-5.5-17.7L22.1,73.2z"/>
		<path class="st2" d="M47.1,43c0,0-0.4-2.9,2.8-3.5c3.2-0.7,4.8,3.5,0.8,5.4C49.1,45.5,47.4,44.3,47.1,43z"/>
		<path class="st2" d="M24.5,43c0,0,0.4-2.9-2.7-3.5c-3.2-0.7-4.8,3.5-0.8,5.4C22.5,45.5,24.2,44.3,24.5,43z"/>
		<g>
			<path class="st7" d="M11.1,13.4C8.5,14.9,3.7,18,4.7,21c0.5,1.3,2.2,2.8,6.8,0.8c4.6-2,13.5-4.9,18.7-5.6c12-2.2-2.1-5.3-8.2-6
				C18.5,9.9,13.7,11.9,11.1,13.4z"/>
			<path class="st7" d="M84.8,25.4c0,0,6.2,5.6,3.7,9.1c-0.9,1.1-3,2-6.8-1.2c-3.8-3.2-11.4-8.6-16.2-10.7c-1.9-0.9-1.7-6.6,6.9-5.5
				C75.5,17.4,82,22.2,84.8,25.4z"/>
			<path class="st7" d="M32.2,14.8c1.1,3.3,18.1,4.7,21,3.9c4.2,1,2.1-2,1.5-3.5c-0.6-1.5-2.6-4.5-8.2-5.9C40.8,7.9,25.3,7.5,22,9.2
				C18,12.4,30.5,9.6,32.2,14.8z"/>
			<path class="st7" d="M65.6,12.9c0,0-17.4-6.9-20.3-3.6c-0.7,1.2,5.7,1.2,6.5,6.1c0.9,5.6,14,8.9,17.9,9.7c1.8,1,7.6-1.7,2.4-7.9
				C70.5,15.2,71.6,15.2,65.6,12.9z"/>
			<path class="st7" d="M70.2,9.3c0,0-1.3,3,0.3,5.1c1,2,2.1,9.5-1.4,7.1c-3.5-2.4-8.5-5.6-8-13.3c0.7-3.9,9-3.4,10.1-1.1
				C71.6,7.9,70.2,9.3,70.2,9.3z"/>
			<path class="st7" d="M76.9,20.3c0,0,4.8-1,4.1-5.1c-0.4-2.3,1.7-2,3-1c1.3,1,3.8,3.8,1.8,6.1c-2,2.3-6.1,5.5-10.7,4.3
				C73.2,23.8,74.9,21.1,76.9,20.3z"/>
			<path class="st7" d="M70.5,14.9c0,0-0.6,5.9-4,8.5c-1.1,1-0.8,3.1,3.1,4.6c2.3,0.9,4.7-0.8,5.8-2.5c1.4-2.1,3.5-6,0.9-9.1
				C73.2,13,70.7,13.3,70.5,14.9z"/>
		</g>
	</g>
</g>
</svg>
