<?xml version="1.0" encoding="utf-8"?>
<!-- Generator: Adobe Illustrator 23.0.3, SVG Export Plug-In . SVG Version: 6.00 Build 0)  -->
<svg version="1.1" id="圖層_1" xmlns="http://www.w3.org/2000/svg" xmlns:xlink="http://www.w3.org/1999/xlink" x="0px" y="0px"
	 viewBox="0 0 40 40" style="enable-background:new 0 0 40 40;" xml:space="preserve">
<style type="text/css">
	.st0{fill:#315A87;}
	.st1{fill:#FFD19D;}
</style>
<g>
	<circle class="st0" cx="20" cy="20" r="20"/>
	<g id="XMLID_64_">
		<path id="XMLID_69_" class="st1" d="M25.2,9H14.8C11.6,9,9,11.7,9,15v10.2c0,3.3,2.6,5.9,5.8,5.9h10.4c3.2,0,5.8-2.7,5.8-5.9V15
			C31,11.7,28.4,9,25.2,9z M29,25c0,2.3-1.8,4.1-4,4.1H15c-2.2,0-4-1.8-4-4.1v-9.9c0-2.3,1.8-4.1,4-4.1h10c2.2,0,4,1.8,4,4.1V25z"/>
		<path id="XMLID_66_" class="st1" d="M20,14.4c-3.1,0-5.5,2.5-5.5,5.7c0,3.1,2.5,5.7,5.5,5.7c3.1,0,5.5-2.5,5.5-5.7
			C25.5,16.9,23.1,14.4,20,14.4z M20,23.7c-2,0-3.6-1.6-3.6-3.7c0-2,1.6-3.6,3.6-3.6c2,0,3.6,1.6,3.6,3.6C23.6,22.1,22,23.7,20,23.7
			z"/>
		<path id="XMLID_65_" class="st1" d="M27.1,14.1c0,0.7-0.6,1.3-1.3,1.3c-0.7,0-1.3-0.6-1.3-1.3c0-0.7,0.6-1.3,1.3-1.3
			C26.5,12.8,27.1,13.4,27.1,14.1z"/>
	</g>
</g>
</svg>
