<?xml version="1.0" encoding="utf-8"?>
<!-- Generator: Adobe Illustrator 23.0.3, SVG Export Plug-In . SVG Version: 6.00 Build 0)  -->
<svg version="1.1" id="圖層_1" xmlns="http://www.w3.org/2000/svg" xmlns:xlink="http://www.w3.org/1999/xlink" x="0px" y="0px"
	 viewBox="0 0 126 78" style="enable-background:new 0 0 126 78;" xml:space="preserve">
<style type="text/css">
	.st0{fill:#1E2F54;}
	.st1{fill:#FFFFFF;}
</style>
<g>
	<path class="st0" d="M121.9,67.5c0.2-0.5,0.3-0.9,0.3-1.5c0-0.8-0.2-1.6-0.6-2.5c-0.4-0.7-0.9-1.4-1.6-1.9c-0.7-0.6-1.5-1-2.5-1.4
		c-0.9-0.3-2-0.5-3.1-0.5c-1.3,0-2.5,0.2-3.6,0.6c-1.1,0.4-2,1-2.8,1.7c-0.2-0.4-0.5-0.7-0.6-0.9c-0.8-0.9-2-1.5-3.3-1.5
		c-1.4,0-2.6,0.6-3.4,1.5c0,0-0.1,0.1-0.1,0.1c-0.1-0.1-0.2-0.2-0.2-0.3c-0.4-0.4-0.8-0.7-1.4-1c-0.6-0.3-1.2-0.4-1.9-0.4
		c-0.9,0-1.8,0.3-2.5,0.8c-0.2,0.1-0.5,0.3-0.8,0.6c-1.1-1.2-2.3-1.4-3.2-1.4c-0.9,0-2.1,0.3-3.2,1.4c-0.1-0.1-0.1-0.2-0.2-0.2
		c-0.8-0.8-1.9-1.2-3.1-1.2c-0.9,0-1.8,0.3-2.5,0.8c-0.2,0.1-0.6,0.4-0.9,0.7c0,0-0.1-0.1-0.1-0.1c-0.9-0.9-2-1.4-3.2-1.4
		c-1.3,0-2.4,0.5-3.2,1.5c-0.3,0.3-0.5,0.6-0.6,0.9c-0.5-0.5-1-0.9-1.6-1.2c-1.3-0.8-2.9-1.1-4.6-1.1c-1.3,0-2.4,0.2-3.5,0.6
		c-1.1,0.4-2.1,1.1-2.9,2c-0.1,0.1-0.3,0.3-0.4,0.4c-0.3-0.4-0.7-0.8-1.1-1.2c-0.7-0.6-1.5-1-2.5-1.4c-0.9-0.3-2-0.5-3.1-0.5
		c-1.3,0-2.5,0.2-3.6,0.6c-1.1,0.4-2.1,1-2.9,1.8c-0.2-0.3-0.4-0.6-0.6-0.9c-0.8-0.9-2-1.5-3.3-1.5c-1.3,0-2.3,0.5-3.2,1.5
		c-0.1,0.1-0.1,0.2-0.2,0.2c-0.1-0.2-0.2-0.3-0.3-0.4c-0.4-0.4-0.9-0.7-1.4-1c-0.6-0.3-1.2-0.4-1.9-0.4c-0.9,0-1.8,0.3-2.5,0.8
		c-1.1,0.7-1.5,1.7-1.6,2.1c0,0,0,0,0,0.1c-0.2,0.6-0.3,1.2-0.3,1.6c0,0.1-0.1,0.1-0.1,0.2L31.5,64c-0.1-0.4-0.3-0.7-0.3-0.9
		c-0.2-0.4-0.4-0.9-0.7-1.2c-0.4-0.6-0.9-1.1-1.6-1.5c-0.7-0.4-1.5-0.6-2.4-0.6c-0.9,0-1.7,0.2-2.4,0.6c-0.7,0.4-1.2,0.9-1.6,1.5
		c-0.3,0.4-0.7,0.9-0.9,1.4l-0.6,1.2v-0.1c0-0.6,0.2-2.5-1.5-3.6C18.3,60,17.4,60,16.9,60h-0.8C16,60,16,60,15.9,60
		c-0.1,0-0.3,0-0.4,0c-0.6,0-1.1,0.1-1.5,0.3c-0.4,0.2-0.8,0.4-1.1,0.7c-0.5-0.4-0.9-0.6-1.1-0.6c-0.5-0.2-1-0.3-1.5-0.3
		C10,60.1,9.9,60,9.8,60C9.7,60,9.6,60,9.6,60H8.7c-0.6,0-1.9,0.1-3,0.8c-1.3,0.8-2.1,2.2-2.1,3.7v4.1c0,0.8-0.8,1.7-0.8,2.3
		c0,0.7,0.8,1.5,0.8,2.3v0.1c0,1.2,0.6,2.3,1.4,3.2C5.9,77.5,7.1,78,8.4,78c0.8,0,1.5-0.2,2.2-0.6c0.7,0.4,1.5,0.6,2.3,0.6
		c0.9,0,1.6-0.2,2.2-0.5c0.6,0.3,1.4,0.5,2.1,0.5c1.2,0,2.1-0.5,2.6-0.9c0.8,0.6,1.7,0.9,2.7,0.9c1.4,0,2.6-0.6,3.4-1.7
		c0.2-0.3,0.4-0.3,0.6-1h0.2c0.2,0.7,0.4,0.8,0.6,1.1c0.5,0.6,1,1,1.4,1.2c0,0,0.1,0,0.1,0.1c0.6,0.3,1.2,0.4,1.9,0.4
		c1,0,2-0.3,2.8-1c0.8,0.6,1.7,1,2.7,1c1.3,0,2.4-0.5,3.2-1.4c0.1-0.1,0.1-0.1,0.2-0.2c0.1,0.1,0.3,0.3,0.4,0.4
		c0.5,0.4,1,0.7,1.5,0.9c0.7,0.2,1.3,0.3,1.8,0.3c1.8,0,3.3-1,4.1-2.5c0.8,0.8,1.8,1.4,2.9,1.8c1.1,0.4,2.3,0.6,3.5,0.6
		c1,0,2-0.1,2.9-0.4c0.9-0.2,1.8-0.6,2.7-1.1c0.5-0.3,0.9-0.5,1.2-0.9c0.1-0.1,0.2-0.2,0.3-0.4c0.8,0.9,1.8,1.6,2.9,2
		c1.1,0.4,2.3,0.7,3.6,0.7c1.3,0,2.5-0.2,3.6-0.7c1-0.4,1.9-1,2.6-1.7c0,0,0,0.1,0.1,0.1c0.4,0.7,0.9,1.3,1.6,1.7
		c0.7,0.4,1.4,0.6,2.2,0.6c1.2,0,2.3-0.5,3.1-1.4c0.1-0.2,0.3-0.3,0.4-0.5c0.3,0.4,0.7,0.8,1.1,1.1c0.7,0.5,1.7,0.8,2.7,0.8
		c1.2,0,2.2-0.4,3-1.1c0.8,0.7,1.8,1.1,2.9,1.1c1.2,0,2.2-0.4,3.1-1.3c0.8,0.8,1.9,1.3,3.2,1.3c1.3,0,2.6-0.5,3.4-1.4
		c0.1-0.1,0.1-0.1,0.2-0.2c0.1,0.1,0.2,0.3,0.4,0.4c0.5,0.4,1,0.7,1.6,0.9c0.7,0.2,1.4,0.3,1.8,0.3c1.8,0,3.3-0.9,4.1-2.3
		c0.8,0.7,1.7,1.3,2.7,1.7c1.1,0.4,2.3,0.6,3.5,0.6c1,0,2-0.1,2.9-0.4c0.9-0.2,1.8-0.6,2.7-1.1c0.5-0.3,0.9-0.5,1.2-0.9
		c0.6-0.5,0.8-1.2,1.1-1.9c0.2-0.5,0.1-1.1,0.1-1.7v-2.2C122.4,69,122.3,68.1,121.9,67.5z"/>
	<g>
		<path class="st1" d="M31,71.7c0.3-0.1,0.5-0.5,0.5-0.9c0-0.5-0.4-0.9-0.8-0.9h-0.3l-2-4.9c-0.1-0.4-0.2-0.6-0.3-0.8
			c-0.1-0.2-0.2-0.4-0.3-0.6c-0.1-0.2-0.3-0.3-0.5-0.5c-0.2-0.1-0.5-0.2-0.8-0.2c-0.3,0-0.6,0.1-0.8,0.2c-0.2,0.1-0.4,0.3-0.5,0.5
			c-0.1,0.2-0.3,0.4-0.4,0.7c-0.1,0.3-0.2,0.5-0.3,0.7L22.6,70h-0.3c-0.5,0-0.8,0.5-0.8,0.9c0,0.4,0.2,0.7,0.5,0.8l-0.3,0.8
			c-0.1,0.3-0.2,0.5-0.3,0.7c-0.1,0.2-0.1,0.3-0.1,0.5c0,0.3,0.1,0.5,0.3,0.7c0.2,0.2,0.5,0.3,0.8,0.3c0.3,0,0.6-0.1,0.7-0.3
			c0.1-0.2,0.3-0.5,0.5-1.1l0.5-1.4h4.6l0.5,1.3c0.1,0.2,0.2,0.3,0.3,0.6c0.1,0.2,0.2,0.4,0.3,0.5c0.1,0.1,0.2,0.2,0.3,0.3
			c0.1,0.1,0.3,0.1,0.5,0.1c0.3,0,0.6-0.1,0.8-0.3c0.2-0.2,0.3-0.5,0.3-0.7c0-0.3-0.1-0.7-0.3-1.2L31,71.7z M26.4,65.3l1.7,4.6h-3.3
			L26.4,65.3z"/>
		<path class="st1" d="M57.8,68.7c-0.2-0.1-0.5-0.1-0.8-0.1h-2.6c-0.3,0-0.6,0.1-0.7,0.2c-0.2,0.2-0.3,0.4-0.3,0.6
			c0,0.3,0.1,0.3,0.3,0.5c0.2,0.1,0.5,0,1,0H56v2.2c-0.7,0.3-0.7,0.5-1.2,0.6c-0.5,0.1-0.9,0.2-1.4,0.2c-1.1,0-1.9-0.4-2.5-1.1
			c-0.6-0.7-0.9-1.7-0.9-3c0-0.6,0.1-1.2,0.2-1.7c0.2-0.5,0.4-0.9,0.7-1.3c0.3-0.3,0.6-0.6,1.1-0.8c0.4-0.2,0.9-0.3,1.4-0.3
			c0.5,0,0.9,0.1,1.3,0.2c0.3,0.2,0.6,0.3,0.8,0.6c0.2,0.2,0.4,0.6,0.7,1c0.1,0.1,0.2,0.2,0.4,0.3c0.1,0.1,0.3,0.1,0.5,0.1
			c0.3,0,0.5-0.1,0.8-0.3c0.2-0.2,0.3-0.4,0.3-0.7c0-0.3-0.1-0.6-0.3-0.9c-0.2-0.3-0.5-0.7-0.8-1c-0.4-0.3-0.8-0.6-1.4-0.8
			c-0.6-0.2-1.2-0.3-2-0.3c-0.9,0-1.7,0.1-2.5,0.4c-0.7,0.3-1.3,0.7-1.8,1.2c-0.5,0.5-0.9,1.1-1.1,1.9c-0.2,0.7-0.4,1.5-0.4,2.1h0
			c-0.5,0-0.8,0.2-0.8,0.7c0,0.5,0.4,0.7,0.8,0.7H48c0.1,0.7,0.2,0.8,0.3,1.2c0.3,0.7,0.6,1.4,1.1,1.9c0.5,0.5,1.1,0.9,1.8,1.2
			c0.7,0.3,1.5,0.4,2.3,0.4c0.7,0,1.4-0.1,2-0.2c0.6-0.2,1.3-0.4,2-0.8c0.2-0.1,0.4-0.3,0.6-0.4c0.1-0.1,0-0.3,0.1-0.5
			c0.1-0.2-0.2-0.4-0.2-0.7v-2.2c0-0.4,0.2-0.7,0-0.9C57.9,68.9,58,68.7,57.8,68.7z"/>
		<path class="st1" d="M70.1,63.8c-0.8-0.5-1.8-0.7-3-0.7c-0.9,0-1.6,0.1-2.3,0.4c-0.7,0.3-1.2,0.7-1.7,1.2
			c-0.5,0.5-0.8,1.1-1.1,1.8c-0.2,0.7-0.4,1.5-0.4,2.4c0,0.8,0.1,1.6,0.4,2.3c0.2,0.7,0.6,1.3,1,1.9c0.5,0.5,1,0.9,1.7,1.2
			c0.7,0.3,1.5,0.4,2.3,0.4c0.9,0,1.7-0.1,2.3-0.4c0.7-0.3,1.3-0.7,1.7-1.2c0.5-0.5,0.8-1.1,1.1-1.8c0.2-0.7,0.4-1.5,0.4-2.4
			c0-1.2-0.2-2.2-0.6-3.1C71.6,64.9,71,64.2,70.1,63.8z M68.8,72.4c-0.5,0.3-1,0.4-1.6,0.4c-0.5,0-0.9-0.1-1.2-0.3
			c-0.4-0.2-0.7-0.4-1-0.8c-0.3-0.3-0.5-0.8-0.7-1.3c0-0.1,0-0.2-0.1-0.3c0.4,0,0.8-0.4,0.8-0.8c0-0.5-0.4-0.8-0.8-0.8H64
			c0-0.7,0.1-1,0.2-1.5c0.2-0.5,0.4-0.9,0.7-1.3c0.3-0.3,0.6-0.6,1-0.7c0.4-0.2,0.8-0.3,1.3-0.3c0.6,0,1.2,0.2,1.7,0.5
			c0.5,0.3,0.9,0.8,1.1,1.4c0.2,0.5,0.4,1.2,0.4,1.9h0c-0.5,0-0.8,0.4-0.8,0.8c0,0.4,0.3,0.8,0.7,0.8c-0.1,0.3-0.2,0.6-0.3,0.8
			C69.6,71.7,69.3,72.1,68.8,72.4z"/>
		<path class="st1" d="M85,72.2l-3.2-4.6l2.8-2.6c0.3-0.3,0.5-0.7,0.5-1c0-0.3-0.1-0.5-0.3-0.7c-0.2-0.2-0.5-0.3-0.8-0.3
			c-0.2,0-0.4,0.1-0.6,0.2c-0.2,0.1-0.6,0.3-0.8,0.5l-4.7,4.7v-3.9c0-0.5,0.1-0.8-0.1-1c-0.2-0.2-0.4-0.3-0.7-0.3
			c-0.3,0-0.7,0.1-0.9,0.3c-0.2,0.2-0.4,0.6-0.4,1v4.9c-0.7,0-0.8,0.4-0.8,0.8c0,0.5,0.1,0.8,0.8,0.8v1.8c0,0.4,0.1,0.6,0.1,0.8
			c0,0.2,0.1,0.4,0.2,0.5c0.1,0.2,0.3,0.3,0.4,0.4c0.2,0.1,0.4,0.2,0.6,0.2c0.3,0,0.4-0.1,0.6-0.3c0.2-0.2,0.1-0.6,0.1-1V71l2.1-1.8
			l2.8,4.1c0.1,0.2,0.3,0.4,0.4,0.6c0.1,0.2,0.3,0.4,0.5,0.5c0.2,0.1,0.5,0.2,0.8,0.2c0.3,0,0.6-0.1,0.8-0.3
			c0.2-0.2,0.3-0.4,0.3-0.7c0-0.2-0.1-0.5-0.2-0.7C85.4,72.8,85.2,72.5,85,72.2z"/>
		<path class="st1" d="M90.5,63.1c-0.3,0-0.7,0.1-0.9,0.3c-0.2,0.2-0.4,0.6-0.4,1v8.8c0,0.5,0.2,0.8,0.4,1c0.2,0.2,0.5,0.3,0.8,0.3
			c0.3,0,0.4-0.1,0.6-0.3c0.2-0.2,0.1-0.6,0.1-1v-8.8c0-0.5,0.1-0.8-0.1-1C90.9,63.2,90.8,63.1,90.5,63.1z"/>
		<path class="st1" d="M119,69c-0.1-0.2-0.2-0.3-0.5-0.4c-0.2-0.1-0.4-0.1-0.7-0.1h-2.6c-0.3,0-0.6,0.1-0.7,0.2
			c-0.2,0.2-0.3,0.4-0.3,0.6c0,0.3,0.1,0.3,0.3,0.5c0.2,0.1,0.5,0,1,0h1.5v2.2c-0.7,0.3-0.8,0.5-1.3,0.6c-0.5,0.1-0.9,0.2-1.4,0.2
			c-1.1,0-1.9-0.4-2.5-1.1c-0.6-0.7-0.9-1.7-0.9-3c0-0.6,0.1-1.2,0.2-1.7c0.2-0.5,0.4-0.9,0.7-1.3c0.3-0.3,0.6-0.6,1.1-0.8
			c0.4-0.2,0.9-0.3,1.4-0.3c0.5,0,0.9,0.1,1.3,0.2c0.3,0.2,0.6,0.3,0.8,0.6c0.2,0.2,0.4,0.6,0.7,1c0.1,0.1,0.2,0.2,0.4,0.3
			c0.2,0.1,0.3,0.1,0.5,0.1c0.3,0,0.5-0.1,0.8-0.3c0.2-0.2,0.3-0.4,0.3-0.7c0-0.3-0.1-0.6-0.3-0.9c-0.2-0.3-0.5-0.7-0.8-1
			c-0.4-0.3-0.8-0.6-1.4-0.8c-0.6-0.2-1.2-0.3-2-0.3c-0.9,0-1.7,0.1-2.5,0.4c-0.7,0.3-1.3,0.7-1.8,1.2c-0.5,0.5-0.9,1.1-1.1,1.9
			c-0.2,0.7-0.4,1.5-0.4,2.1h0c-0.5,0-0.8,0.2-0.8,0.7c0,0.5,0.4,0.7,0.8,0.7h0.2c0.1,0.7,0.2,0.8,0.3,1.2c0.3,0.7,0.7,1.4,1.1,1.9
			c0.5,0.5,1.1,0.9,1.8,1.2c0.7,0.3,1.5,0.4,2.3,0.4c0.7,0,1.4-0.1,2-0.2c0.6-0.2,1.3-0.4,2-0.8c0.2-0.1,0.4-0.3,0.6-0.4
			c0.1-0.1,0.1-0.3,0.2-0.5c0.1-0.2-0.1-0.4-0.1-0.7v-2.2C119,69.5,119.1,69.2,119,69z"/>
		<path class="st1" d="M17.6,70.1v-5.6c0-0.5,0.2-0.8-0.1-1c-0.3-0.2-0.3-0.2-0.7-0.2h-0.7c-0.4,0-0.7,0-0.9,0.1
			c-0.2,0.1-0.3,0.2-0.4,0.4c-0.1,0.2-0.2,0.5-0.3,1l-1.6,6.1l-1.6-6.1c-0.1-0.4-0.2-0.8-0.3-1c-0.1-0.2-0.2-0.3-0.4-0.4
			c-0.2-0.1-0.5-0.1-0.9-0.1H8.9c-0.4,0-1,0.1-1.3,0.2C7.3,63.7,7,64,7,64.5v5.6c0,0-0.8,0.4-0.8,0.8c0,0.4,0.8,0.8,0.8,0.8v1.6
			c0,0.4,0.3,0.8,0.5,1c0.2,0.2,0.6,0.3,0.9,0.3c0.3,0,0.3-0.1,0.5-0.3c0.2-0.2,0.1-0.5,0.1-1v-7.7l2.1,7.1c0.1,0.2,0.3,0.5,0.3,0.7
			c0.1,0.2,0.2,0.4,0.3,0.6c0.1,0.2,0.3,0.3,0.5,0.4c0.2,0.1,0.4,0.2,0.7,0.2c0.4,0,0.6-0.1,0.8-0.3c0.2-0.2,0.3-0.4,0.4-0.6
			c0.1-0.2-0.1-0.6,0-1l1.5-7.1v7.7c0,0.4,0.4,0.7,0.6,1c0.2,0.2,0.6,0.3,0.9,0.3c0.3,0,0.3-0.1,0.5-0.3c0.2-0.2,0-0.5,0-1v-1.6
			c0.7,0,0.8-0.4,0.8-0.8C18.4,70.5,18.2,70.1,17.6,70.1z"/>
		<path class="st1" d="M105.1,70L105.1,70l0-5.6c0-0.4-0.1-0.8-0.3-1c-0.2-0.2-0.4-0.3-0.8-0.3c-0.3,0-0.8,0.1-1,0.3
			c-0.2,0.2-0.6,0.5-0.6,1V71l-4.1-6.6c-0.1-0.2-0.1-0.4-0.2-0.6c-0.1-0.2-0.2-0.3-0.3-0.4c-0.1-0.1-0.2-0.2-0.3-0.3
			c-0.1-0.1-0.3-0.1-0.5-0.1c-0.3,0-0.5,0.1-0.7,0.2c-0.2,0.1-0.7,0.3-0.8,0.6c-0.1,0.2-0.4,0.5-0.4,0.9v1.2c0,0-0.8,0.4-0.8,0.8
			c0,0.5,0.8,0.8,0.8,0.8v5.8c0,0.4,0.4,0.7,0.6,1c0.2,0.2,0.6,0.3,0.9,0.3c0.3,0,0.6-0.1,0.8-0.3c0.2-0.2,0.3-0.5,0.3-1v-6.6
			l4.3,6.5c0.1,0.2,0.3,0.4,0.4,0.5c0.1,0.2,0.3,0.3,0.4,0.4c0.1,0.1,0.3,0.2,0.5,0.3c0.2,0.1,0.4,0.1,0.6,0.1
			c0.8,0,1.2-0.5,1.2-1.5v-1.2h0c0.5,0,0.8-0.5,0.8-1C106,70.5,105.6,70,105.1,70z"/>
		<path class="st1" d="M44.3,70h-0.2v-5.6c0-0.4,0-0.8-0.2-1c-0.2-0.2-0.4-0.3-0.7-0.3c-0.3,0-0.6,0.1-0.8,0.3
			c-0.2,0.2-0.3,0.5-0.3,1V71l-4.3-6.6c-0.1-0.2-0.2-0.4-0.3-0.6c-0.1-0.2-0.2-0.3-0.3-0.4c-0.1-0.1-0.2-0.2-0.4-0.3
			c-0.1-0.1-0.3-0.1-0.5-0.1c-0.3,0-0.5,0.1-0.7,0.2c-0.2,0.1-0.4,0.3-0.5,0.6c-0.1,0.2-0.2,0.5-0.2,0.9v1.2c-0.7,0-0.8,0.4-0.8,0.8
			c0,0.5,0.2,0.8,0.8,0.8v5.8c0,0.4,0.1,0.7,0.3,1c0.2,0.2,0.5,0.3,0.8,0.3c0.3,0,0.5-0.1,0.7-0.3c0.2-0.2,0.2-0.5,0.2-1v-6.6
			l4.4,6.5c0.1,0.2,0.3,0.4,0.4,0.5c0.1,0.2,0.3,0.3,0.4,0.4c0.1,0.1,0.3,0.2,0.5,0.3c0.2,0.1,0.3,0.1,0.5,0.1
			c0.8,0,1.1-0.5,1.1-1.5v-1.2h0.2c0.5,0,0.8-0.5,0.8-1C45.1,70.5,44.8,70,44.3,70z"/>
	</g>
	<g>
		<g>
			<path class="st0" d="M108.3,59.1c-2.9,0-5.7-0.6-7.9-1.6c-1.8-0.9-3.2-2-4.3-3.4c-1.2,0.6-2.5,1-3.8,1l-0.1,0c-1.9,0-4.9-0.9-7-3
				c-1.6-1.7-2.4-3.9-2.4-6.3c0-1.7,0.4-3.4,1-5.1c-0.5-0.5-0.9-1-1.1-1.5c-1.2-2.4-1.2-5.3-0.1-7.4c0.9-1.6,2.3-2.7,4-2.9
				c0.6-0.1,1.2-0.3,1.7-0.5c0.1-0.8,0.3-1.5,0.8-2.2c0.9-1.6,2.1-2.3,3.2-2.7c0-0.4,0-0.9,0.1-1.3c0.1-0.3,0.2-0.7,0.3-1
				C91,20,90,18.4,89.8,16.5c-0.2-2.1,0.7-4.4,2.5-5.9C93,10,97.1,7,103.2,7c1.2,0,2.4,0.1,3.6,0.4c6.5,1.3,11,5,12.7,10.7
				c1.6,1.3,2.6,3.1,2.6,5.3c0,2.4-0.9,4.3-2.7,5.6c-0.1,0.4-0.3,0.7-0.5,1.1c3.4,2.3,5.8,5.6,6.5,9.1c0.9,4.7,1.1,10.7-5.3,16
				C116.1,58.6,111,59.1,108.3,59.1z"/>
			<path class="st1" d="M121.3,39.9c-0.7-3.5-4.4-7.2-9.3-8.3c2.2-1.5,3.4-3.3,3.9-5.7c1.5-0.4,2-1.2,2-2.5c0-1.4-0.9-2.1-2-2.5
				c-0.6-3.6-2.9-8-9.8-9.3c-6-1.2-10.2,1.7-11,2.4c-1.1,0.9-1.4,2.6-0.2,3.2c1.4,0.7,2.9-1.1,5.9-1.3c2.4-0.1,6.7,0.7,8.2,4.6
				c-2.5,0-4.5,0.1-5.9,0.2c-0.3-0.7-0.9-1-1.7-1h-0.1c-1.2,0-1.8,0.8-2.1,1.4c-0.1,0-0.2,0-0.3,0.1c-0.1,0-0.2,0-0.3,0.1
				c-0.9,0.2-1.8,0.5-2,1.5c-0.1,0.3,0,0.7,0.3,1c0.2,0.3,0.5,0.6,0.9,0.8c-0.5,1-1.1,2.1-2,3.1c-0.6-0.3-1.2-0.5-1.7-0.5
				c-0.4,0-0.8,0.1-1.3,0.9c-0.2,0.3-0.2,0.7-0.1,1.1c0.1,0.3,0.3,0.6,0.6,1c-1.6,1.2-3.5,2.2-5.9,2.7c-0.5,0.1-0.7,0.4-0.9,0.7
				C86,34.6,86,36,86.6,37.1c0.3,0.6,1.4,1.4,3,1.9c-1.2,1.8-2.3,4.1-2.4,6.8c0,1.3,0.4,2.4,1.2,3.2c1.2,1.2,3,1.7,3.9,1.7l0.1,0
				c1.2,0,2.4-0.6,3-1.5c0.3-0.4,0.6-1.2,0.3-2c-0.6-1.6-0.4-3.5,0.6-5.3c1.7-3,5.2-5.4,8.6-6c0.8-0.1,1.6-0.2,2.4-0.2
				c3.7,0,6.7,1.6,7.8,4c0.8,1.8,0.8,3.8,0.1,5.6c-0.8,1.9-2.4,3.4-4.4,4.1c-1.4,0.5-2.6,0.8-3.6,0.8c-1.9,0-3.3-0.9-3.7-2.3
				c-0.2-0.8,0-1.6,0.6-2.4c0.5-0.6,1.2-1.2,1.8-1.2c0.5,0,0.9,0.4,0.9,0.9c0,0.4,0.9,1.6,1.9,1.6c0.1,0,0.2,0,0.3,0
				c1.3-0.3,2-1.2,2.3-1.9c0.6-1.2,0.4-2.5,0.1-3.2c-0.6-1.4-2-2.1-4.1-2.1c-0.4,0-0.8,0-1.3,0.1c-3,0.4-6.3,3.3-7.3,6.3
				c-1,3.2,0.3,6.1,3.6,7.7c1.5,0.8,3.7,1.2,6,1.2c2.1,0,6.1-0.4,9.2-3C121.9,48.1,122.2,44.4,121.3,39.9z M106.8,28.6
				c-1.1,0.5-2.7,0.8-4.4,0.8c0,0,0,0-0.1,0c0.5-1.3,0.7-2.5,0.9-3.5c1.9,0.2,4,0.3,5.9,0.4C108.6,27.3,107.7,28.2,106.8,28.6z"/>
		</g>
		<g>
			<path class="st0" d="M86.4,29.3c0-4.7-1.3-8.7-3.7-11.9c0.4-0.5,0.8-1,1-1.5c1.8-1,2.9-3,2.9-5.2c-0.1-2.9-2.2-5.2-5-5.7
				c-0.6-2.8-3.1-5-6.1-5c0,0-0.1,0-0.1,0c-1.7,0-3.2,0.7-4.4,1.9c-0.2,0.3-0.5,0.5-0.7,0.8c-0.8-0.4-1.7-0.6-2.6-0.6
				c0,0-0.1,0-0.1,0c-3.2,0.1-5.8,2.7-5.7,6c0,0.8,0.2,1.6,0.5,2.3c-11.5,1.8-20.1,11.3-21,20c-0.7,6.1,1.4,9.9,3.3,12.1
				c-1,1.6-1,3.1-0.7,4.2c0.2,0.9,0.8,2.4,2.3,3.5c-0.2,1.7,0.2,3.4,1.2,4.7c0.6,0.8,1.9,2,4.5,2c1.2,0,2.5-0.3,3.8-0.7
				c0.8,1.3,1.9,2,2.8,2.4l0.1,0c0.6,0.3,1.8,0.8,3.2,0.8c1.6,0,4.5-0.7,6.4-5c3,3.1,5.8,4.6,8.4,4.6c0,0,0,0,0,0
				c1.1,0,2.1-0.3,3-0.8c2-1.1,3.2-3,3.3-5.3c0.1-2.9-1.7-6.1-4.6-8.1c0,0,0,0-0.1,0C83.4,41.3,86.4,35.9,86.4,29.3z"/>
			<g>
				<path class="st1" d="M76,48.4c-2.3-1.6-4-2.3-5.2-2.3c-0.6,0-1.1,0.2-1.4,0.6c-0.8,1-0.2,2.3,0.1,2.7c1,1.2,4.5,5.3,7.1,5.3l0,0
					c0.3,0,0.7-0.1,0.9-0.2c0.7-0.4,1.1-1,1.1-1.7C78.8,51.3,77.6,49.5,76,48.4z"/>
				<path class="st1" d="M67.7,14.4c-0.4,0-0.9,0-1.3,0c-10.8,0-19.8,8.7-20.7,16.5c-0.4,3.7,0.4,6.7,2.4,9c1.1,1.2,2.4,2.1,3.9,2.8
					c-3,1.1-4,2.3-3.8,3.1c0.2,0.8,0.6,1.2,2.1,1.2c0.6,0,1.3-0.1,2-0.1c0.3,0,0.5-0.1,0.8-0.1c-1.3,1.3-2.3,2.7-2.5,3.9
					c-0.1,0.6,0,1.2,0.3,1.6c0.2,0.3,0.8,0.3,1.1,0.3l0,0c1.9,0,4.8-1.4,6.4-2.9c0.2,3.7,1.3,4.7,1.9,4.9l0.1,0
					c0.4,0.2,1,0.4,1.5,0.4c0.4,0,1.5,0,2.5-2.6c0.5-1.4,1.1-4.4,1.6-7.8c8.4-0.8,16.1-5.6,16.1-15.3C82.1,20.5,76.7,15,67.7,14.4z
					 M66.8,38.7c0.2-1.4,0.3-2.8,0.5-4c2.6-0.2,4.2-0.9,4.6-1.8c0.2-0.6,0.2-1-0.1-1.5c-0.6-0.9-2.1-1.6-4-1.8c-0.1-1-0.6-1.8-2.2-2
					c-0.1,0-0.3,0-0.4,0c-1.1,0-2,0.7-2.8,2.2c-3.1,0.4-5,1.1-5.7,2c-0.2,0.3-0.3,0.5-0.3,0.8c0.1,1.3,2.1,1.9,2.8,2
					c0.4,0,0.9,0.1,1.5,0.2c-0.4,1.5-0.7,2.9-1,4.2c-3-0.2-5.8-0.9-7.4-2.7c-1.1-1.3-1.6-3-1.4-5.2c0.5-4.8,7-12.3,14.5-12.3
					c0.2,0,0.5,0,0.7,0c6.9,0.4,9.9,5.7,9.9,10.7C76,34.4,72.6,37.8,66.8,38.7z"/>
				<path class="st1" d="M67.1,9.3L67.1,9.3c0,0.7-0.2,2.1,0.4,2.8c4-0.3,8,1.4,10.7,3.6c1.9-1.4,2-2.3,2-3.5
					c0.2,0.1,0.4,0.1,0.6,0.1c0.9,0,1.5-0.7,1.5-1.6c0-0.9-0.7-1.5-1.6-1.5c-0.8,0-1.5,0.7-1.5,1.5c0,0,0,0,0,0
					c-1,1.2-4.7,0.4-3.7-2.5c1.1,0,1.9-0.9,1.9-2c0-1.1-0.9-1.9-2-1.9c-1.1,0-1.9,0.9-1.9,2c0,0.5,0.2,0.9,0.5,1.3c0,0,0,0,0,0
					c-1,3.4-4.3,2.2-5.1,1.3c0.2-0.3,0.3-0.6,0.3-0.9c0-0.9-0.7-1.5-1.6-1.5c-0.9,0-1.5,0.7-1.5,1.6C66.3,8.6,66.6,9.1,67.1,9.3z"/>
			</g>
		</g>
		<g>
			<path class="st0" d="M45,32.9c-1.9-6-5.2-9.3-8.4-10.9c1.2-0.6,2.3-1.6,3-2.7c1-1.5,1.3-3.3,1-5c-0.9-4.5-4.4-5.7-7.1-6
				c-0.3,0-0.6-0.1-1-0.1C31.3,7,30,6.7,29.1,6.6c-0.2,0-0.4,0-0.6,0l-0.2,0c-2.2,0.1-3.8,1.2-4.9,2.7c-1.4,0.3-2.7,0.6-3.9,0.8
				c-1.2-1.5-2.7-2.3-4.4-2.4c-0.1,0-0.2,0-0.3,0c-0.3,0-0.6,0-0.9,0.1c-3,0.5-4.7,2.9-5.2,5.3c0,0-0.1,0-0.1,0
				c-1.7,0.7-5.7,2.2-5.4,6.3c0.1,1.5,1,5,6.1,5.5c0.3,0,0.6,0.1,0.9,0.1c0.5,0.8,1,1.5,1.5,2c-2,0.2-4,0.9-5.8,2
				c-7.5,4.8-6.7,13.3-4.3,17.9c1.5,2.8,4.9,6.1,10,6.5c0.1,0.2,0.2,0.4,0.4,0.6c1.1,1.5,2.6,2.5,4.3,2.8c0.5,0.1,1,0.1,1.5,0.1
				c1.5,0,2.9-0.5,4-1.4c0.8,0.9,1.8,1.7,2.9,2.3c0.3,0.1,0.5,0.2,0.7,0.3c0.1,0.1,0.3,0.1,0.4,0.2c0,0,0.1,0,0.1,0
				c1.2,0.4,2.6,0.7,4.1,0.7c3.8,0,8.9-1.6,11.9-6.2C44.6,49,47,39.5,45,32.9z"/>
			<g>
				<path class="st1" d="M40.9,34.2c-1.7-5.5-5-8.7-9.6-9.5c-0.6-0.1-1.3-0.1-2-0.2c-4.6-0.2-8.8,2.7-11.6,8.9c0,0,0,0,0,0
					c-1-1.3-2.9-2.1-4.9-2.1c-1.5,0-3.1,0.5-4.6,1.4c-5.6,3.6-3.9,10.1-2.8,12.3c1,2,3.5,4.3,7.3,4.3c0.3,0,0.6,0,0.8,0
					c0.4,0,0.8-0.1,1.1-0.2c0.2,1.1,0.4,2,0.8,2.6c0.3,0.4,0.8,0.9,1.4,1c0.3,0,0.6,0.1,0.9,0.1l0,0c2,0,3.2-2.6,3.6-5.2
					c0.1-0.8,0.3-1.7,0.4-2.7c0.3-2.2,0.6-4.1,1-5.7c0.4,0,0.7-0.1,1.1-0.1c1,0,2,0.2,3,0.6c1.1,0.5,1.8,1.2,1.9,2.1
					c0.2,1.3-1,2.4-1.9,3.2c-2,1.7-3,3.6-2.8,5.4c0.1,0.6,0.3,1.2,0.6,1.7c0.4,0.8,1,1.5,2.2,2.1c0.1,0.1,0.3,0.1,0.5,0.2
					c0,0,0,0,0.1,0c0,0,0,0,0,0c0.8,0.3,1.7,0.5,2.7,0.5c2.6,0,6.3-1.1,8.3-4.2C40.3,47.6,42.5,39.5,40.9,34.2z M12.6,43.8
					c-1,0-2-0.3-2.7-0.9c-0.9-0.7-1.4-1.9-1.4-3.3c0-1.4,0.7-2.6,1.8-3.4c0.9-0.6,1.8-1,2.8-1c1.4,0,2.6,0.7,3.3,1.8
					c0,0,0,0.1,0,0.1c-0.3,0.2-0.7,0.3-1,0.5l-0.1,0c-1,0.5-2,1.3-1.6,2.9c0.1,0.6,0.9,0.9,1.6,1c-0.1,0.5-0.2,1-0.3,1.5
					c0,0.1,0,0.2,0,0.2C14.2,43.6,13.4,43.8,12.6,43.8z M27.7,34.5c-0.7-0.2-1.4-0.3-2.1-0.3c-0.3,0-0.5,0-0.8,0
					c1.5-2.2,3.2-4,6.3-3c1.9,0.6,4.5,3.1,3.9,9C34.1,38.1,31.8,35.8,27.7,34.5z M30.4,49.6C30.3,49.6,30.3,49.6,30.4,49.6
					c-0.1,0-0.1,0-0.1,0c-0.5,0-0.8-0.1-1.2-0.2c-0.4-0.2-0.8-0.4-1.2-0.7c-0.3-0.3-0.4-0.7-0.4-0.8c0-0.6,0.4-1.2,1-1.3
					c0.1,0,0.2,0,0.4-0.1c2.5-0.5,4-1.1,5-1.6c-0.3,0.6-0.5,1.2-0.7,1.7C32.7,48.1,32.2,49.5,30.4,49.6z"/>
				<path class="st1" d="M9.8,20.7c0.8,0.1,2,0.1,3.4-0.1c0.4,1.9,1.1,3.4,2.2,3.7c0.2,0,0.3,0.1,0.5,0.1l0,0c0.6,0,1.1-0.2,1.5-0.7
					c0.6-0.8,1-2.1,1-3.6c1.2-0.1,2.4-0.2,3.6-0.3c1.5-0.1,2.9-0.3,4.3-0.4c0.3,1.3,0.8,2.2,1.7,2.6c0.2,0.1,0.4,0.1,0.6,0.1
					c0.6,0.1,1.2-0.1,1.6-0.6c0.6-0.6,1-1.5,1.1-2.6c0.9-0.1,1.6-0.2,1.9-0.3c1.1-0.2,2-0.8,2.6-1.7c0.3-0.4,0.5-1,0.4-1.8
					c-0.2-1.2-0.7-2.3-3.3-2.6c-0.7-0.1-1.6-0.1-2.6,0c-0.5-1-1.1-1.5-1.8-1.6c-0.1,0-0.2,0-0.2,0c-1.6,0.1-1.9,1.8-1.9,1.8
					c0,0.1,0,0.2-0.1,0.4c-3,0.5-6.3,1.2-9.1,1.9c-0.7-2-1.6-3-2.5-3c-0.1,0-0.2,0-0.3,0c-1.3,0.2-1.7,1.7-1.7,2.3
					c0,0.6,0,1.3,0,1.9c-1.2,0.3-2.1,0.6-2.7,0.9c-2,0.8-2.7,1.3-2.6,1.9C7.6,20,8.2,20.5,9.8,20.7z"/>
			</g>
		</g>
	</g>
</g>
</svg>
