<?xml version="1.0" encoding="utf-8"?>
<!-- Generator: Adobe Illustrator 23.0.3, SVG Export Plug-In . SVG Version: 6.00 Build 0)  -->
<svg version="1.1" id="圖層_1" xmlns="http://www.w3.org/2000/svg" xmlns:xlink="http://www.w3.org/1999/xlink" x="0px" y="0px"
	 viewBox="0 0 40 40" style="enable-background:new 0 0 40 40;" xml:space="preserve">
<style type="text/css">
	.st0{fill:#B1D6FF;}
	.st1{fill:#315A87;}
</style>
<g>
	<path class="st0" d="M40,20c0,11-9,20-20,20C9,40,0,31,0,20C0,9,9,0,20,0C31,0,40,9,40,20z"/>
	<path id="Twitter_4_" class="st1" d="M29.1,12c-0.8,0.5-1.6,0.8-2.5,1c-0.7-0.8-1.8-1.3-2.9-1.3c-2.2,0-4,1.8-4,4.1
		c0,0.3,0,0.6,0.1,0.9c-3.3-0.2-6.2-1.8-8.2-4.3c-0.3,0.6-0.5,1.3-0.5,2c0,1.4,0.7,2.7,1.8,3.4c-0.7,0-1.3-0.2-1.8-0.5v0.1
		c0,2,1.4,3.6,3.2,4c-0.3,0.1-0.7,0.1-1,0.1c-0.3,0-0.5,0-0.7-0.1c0.5,1.6,2,2.8,3.7,2.8c-1.4,1.1-3.1,1.7-4.9,1.7
		c-0.3,0-0.6,0-0.9-0.1c1.8,1.2,3.8,1.8,6.1,1.8c7.3,0,11.3-6.2,11.3-11.6c0-0.2,0-0.4,0-0.5c0.8-0.6,1.5-1.3,2-2.1
		c-0.7,0.3-1.5,0.5-2.3,0.6C28.2,13.8,28.9,13,29.1,12z"/>
</g>
</svg>
