<?xml version="1.0" encoding="utf-8"?>
<!-- Generator: Adobe Illustrator 23.0.3, SVG Export Plug-In . SVG Version: 6.00 Build 0)  -->
<svg version="1.1" id="圖層_1" xmlns="http://www.w3.org/2000/svg" xmlns:xlink="http://www.w3.org/1999/xlink" x="0px" y="0px"
	 viewBox="0 0 40 40" style="enable-background:new 0 0 40 40;" xml:space="preserve">
<style type="text/css">
	.st0{fill:#315A87;}
	.st1{fill:#FFD19D;}
</style>
<g>
	<circle class="st0" cx="20" cy="20" r="20"/>
	<g id="XMLID_55_">
		<path id="XMLID_60_" class="st1" d="M18,19.3c0.5-0.2,0.8-0.5,1-0.8c0.4-0.5,0.6-1.2,0.6-2c0-0.8-0.2-1.5-0.6-2
			c-0.7-0.9-1.9-1.4-3.5-1.4H9v13.4h6.1c0.7,0,1.3-0.1,1.9-0.2c0.6-0.1,1.1-0.3,1.5-0.7c0.4-0.3,0.7-0.6,1-1.1
			c0.4-0.6,0.6-1.3,0.6-2.1c0-0.8-0.2-1.4-0.5-2C19.3,20,18.7,19.6,18,19.3z M11.7,15.4h3c0.7,0,1.2,0.1,1.6,0.2
			c0.5,0.2,0.7,0.6,0.7,1.2c0,0.6-0.2,1-0.6,1.2c-0.4,0.2-0.9,0.3-1.4,0.3h-3.3V15.4z M16.4,24c-0.3,0.2-0.8,0.2-1.4,0.2h-3.3v-3.6
			H15c0.6,0,1,0.1,1.4,0.2c0.6,0.3,0.9,0.7,0.9,1.4C17.3,23.1,17,23.7,16.4,24z"/>
		<rect id="XMLID_59_" x="23.1" y="13.7" class="st1" width="5.8" height="1.7"/>
		<path id="XMLID_56_" class="st1" d="M30.1,18.3c-0.5-0.7-1-1.2-1.7-1.5c-0.7-0.3-1.5-0.5-2.4-0.5c-1.5,0-2.7,0.5-3.6,1.4
			c-0.9,0.9-1.4,2.2-1.4,4c0,1.8,0.5,3.2,1.5,4c1,0.8,2.2,1.2,3.5,1.2c1.6,0,2.9-0.5,3.8-1.4c0.6-0.6,0.9-1.2,1-1.8h-2.7
			c-0.2,0.3-0.3,0.5-0.5,0.7c-0.4,0.3-0.9,0.5-1.5,0.5c-0.6,0-1.1-0.1-1.5-0.4c-0.7-0.4-1-1.1-1.1-2.1H31c0-0.9,0-1.5-0.1-2
			C30.8,19.6,30.5,18.9,30.1,18.3z M23.7,20.6c0.1-0.6,0.3-1.2,0.7-1.5c0.4-0.4,0.9-0.6,1.6-0.6c0.6,0,1.1,0.2,1.6,0.5
			c0.4,0.4,0.7,0.9,0.7,1.6H23.7z"/>
	</g>
</g>
</svg>
